<svg width="50" height="50" viewBox="0 0 50 50" fill="none" xmlns="http://www.w3.org/2000/svg">
<circle cx="25" cy="25" r="25" fill="#0CB5BB"/>
<path fill-rule="evenodd" clip-rule="evenodd" d="M31.5436 14.2917H36.1665C37.7707 14.2917 39.0832 15.6042 39.0832 17.2083V34.7083C39.0832 36.3125 37.7707 37.625 36.1665 37.625H12.8332C11.229 37.625 9.9165 36.3125 9.9165 34.7083V17.2083C9.9165 15.6042 11.229 14.2917 12.8332 14.2917H17.4561L20.1248 11.375H28.8748L31.5436 14.2917ZM12.8331 34.7083H36.1665V17.2083H30.2602L27.5915 14.2917H21.4081L18.7394 17.2083H12.8331V34.7083ZM24.4998 18.6667C20.4748 18.6667 17.2081 21.9333 17.2081 25.9583C17.2081 29.9833 20.4748 33.25 24.4998 33.25C28.5248 33.25 31.7914 29.9833 31.7914 25.9583C31.7914 21.9333 28.5248 18.6667 24.4998 18.6667ZM20.1249 25.9583C20.1249 28.3646 22.0936 30.3333 24.4999 30.3333C26.9061 30.3333 28.8749 28.3646 28.8749 25.9583C28.8749 23.5521 26.9061 21.5833 24.4999 21.5833C22.0936 21.5833 20.1249 23.5521 20.1249 25.9583Z" fill="white"/>
</svg>
