<svg width="173" height="134" viewBox="0 0 173 134" fill="none" xmlns="http://www.w3.org/2000/svg">
<path d="M27.14 111.516V125.416H24.86V115.896L20.62 125.416H19.04L14.78 115.896V125.416H12.5V111.516H14.96L19.84 122.416L24.7 111.516H27.14ZM34.9167 125.596C33.8767 125.596 32.9367 125.363 32.0967 124.896C31.2567 124.416 30.5967 123.749 30.1167 122.896C29.6367 122.029 29.3967 121.029 29.3967 119.896C29.3967 118.776 29.6434 117.783 30.1367 116.916C30.6301 116.049 31.3034 115.383 32.1567 114.916C33.0101 114.449 33.9634 114.216 35.0167 114.216C36.0701 114.216 37.0234 114.449 37.8767 114.916C38.7301 115.383 39.4034 116.049 39.8967 116.916C40.3901 117.783 40.6367 118.776 40.6367 119.896C40.6367 121.016 40.3834 122.009 39.8767 122.876C39.3701 123.743 38.6767 124.416 37.7967 124.896C36.9301 125.363 35.9701 125.596 34.9167 125.596ZM34.9167 123.616C35.5034 123.616 36.0501 123.476 36.5567 123.196C37.0767 122.916 37.4967 122.496 37.8167 121.936C38.1367 121.376 38.2967 120.696 38.2967 119.896C38.2967 119.096 38.1434 118.423 37.8367 117.876C37.5301 117.316 37.1234 116.896 36.6167 116.616C36.1101 116.336 35.5634 116.196 34.9767 116.196C34.3901 116.196 33.8434 116.336 33.3367 116.616C32.8434 116.896 32.4501 117.316 32.1567 117.876C31.8634 118.423 31.7167 119.096 31.7167 119.896C31.7167 121.083 32.0167 122.003 32.6167 122.656C33.2301 123.296 33.9967 123.616 34.9167 123.616ZM48.4506 114.216C49.3173 114.216 50.0906 114.396 50.7706 114.756C51.464 115.116 52.004 115.649 52.3906 116.356C52.7773 117.063 52.9706 117.916 52.9706 118.916V125.416H50.7106V119.256C50.7106 118.269 50.464 117.516 49.9706 116.996C49.4773 116.463 48.804 116.196 47.9506 116.196C47.0973 116.196 46.4173 116.463 45.9106 116.996C45.4173 117.516 45.1706 118.269 45.1706 119.256V125.416H42.8906V114.396H45.1706V115.656C45.544 115.203 46.0173 114.849 46.5906 114.596C47.1773 114.343 47.7973 114.216 48.4506 114.216ZM65.9789 119.636C65.9789 120.049 65.9522 120.423 65.8989 120.756H57.4789C57.5456 121.636 57.8722 122.343 58.4589 122.876C59.0456 123.409 59.7656 123.676 60.6189 123.676C61.8456 123.676 62.7122 123.163 63.2189 122.136H65.6789C65.3456 123.149 64.7389 123.983 63.8589 124.636C62.9922 125.276 61.9122 125.596 60.6189 125.596C59.5656 125.596 58.6189 125.363 57.7789 124.896C56.9522 124.416 56.2989 123.749 55.8189 122.896C55.3522 122.029 55.1189 121.029 55.1189 119.896C55.1189 118.763 55.3456 117.769 55.7989 116.916C56.2656 116.049 56.9122 115.383 57.7389 114.916C58.5789 114.449 59.5389 114.216 60.6189 114.216C61.6589 114.216 62.5856 114.443 63.3989 114.896C64.2122 115.349 64.8456 115.989 65.2989 116.816C65.7522 117.629 65.9789 118.569 65.9789 119.636ZM63.5989 118.916C63.5856 118.076 63.2856 117.403 62.6989 116.896C62.1122 116.389 61.3856 116.136 60.5189 116.136C59.7322 116.136 59.0589 116.389 58.4989 116.896C57.9389 117.389 57.6056 118.063 57.4989 118.916H63.5989ZM78.1427 114.396L71.3827 130.596H69.0227L71.2627 125.236L66.9227 114.396H69.4627L72.5627 122.796L75.7827 114.396H78.1427ZM99.6986 111.516V125.416H97.4186V115.896L93.1786 125.416H91.5986L87.3386 115.896V125.416H85.0586V111.516H87.5186L92.3986 122.416L97.2586 111.516H99.6986ZM101.935 119.856C101.935 118.749 102.162 117.769 102.615 116.916C103.082 116.063 103.709 115.403 104.495 114.936C105.295 114.456 106.175 114.216 107.135 114.216C108.002 114.216 108.755 114.389 109.395 114.736C110.049 115.069 110.569 115.489 110.955 115.996V114.396H113.255V125.416H110.955V123.776C110.569 124.296 110.042 124.729 109.375 125.076C108.709 125.423 107.949 125.596 107.095 125.596C106.149 125.596 105.282 125.356 104.495 124.876C103.709 124.383 103.082 123.703 102.615 122.836C102.162 121.956 101.935 120.963 101.935 119.856ZM110.955 119.896C110.955 119.136 110.795 118.476 110.475 117.916C110.169 117.356 109.762 116.929 109.255 116.636C108.749 116.343 108.202 116.196 107.615 116.196C107.029 116.196 106.482 116.343 105.975 116.636C105.469 116.916 105.055 117.336 104.735 117.896C104.429 118.443 104.275 119.096 104.275 119.856C104.275 120.616 104.429 121.283 104.735 121.856C105.055 122.429 105.469 122.869 105.975 123.176C106.495 123.469 107.042 123.616 107.615 123.616C108.202 123.616 108.749 123.469 109.255 123.176C109.762 122.883 110.169 122.456 110.475 121.896C110.795 121.323 110.955 120.656 110.955 119.896ZM118.91 116.256V122.356C118.91 122.769 119.003 123.069 119.19 123.256C119.39 123.429 119.723 123.516 120.19 123.516H121.59V125.416H119.79C118.763 125.416 117.977 125.176 117.43 124.696C116.883 124.216 116.61 123.436 116.61 122.356V116.256H115.31V114.396H116.61V111.656H118.91V114.396H121.59V116.256H118.91ZM126.351 116.256V122.356C126.351 122.769 126.445 123.069 126.631 123.256C126.831 123.429 127.165 123.516 127.631 123.516H129.031V125.416H127.231C126.205 125.416 125.418 125.176 124.871 124.696C124.325 124.216 124.051 123.436 124.051 122.356V116.256H122.751V114.396H124.051V111.656H126.351V114.396H129.031V116.256H126.351ZM141.233 119.636C141.233 120.049 141.206 120.423 141.153 120.756H132.733C132.799 121.636 133.126 122.343 133.713 122.876C134.299 123.409 135.019 123.676 135.873 123.676C137.099 123.676 137.966 123.163 138.473 122.136H140.933C140.599 123.149 139.993 123.983 139.113 124.636C138.246 125.276 137.166 125.596 135.873 125.596C134.819 125.596 133.873 125.363 133.033 124.896C132.206 124.416 131.553 123.749 131.073 122.896C130.606 122.029 130.373 121.029 130.373 119.896C130.373 118.763 130.599 117.769 131.053 116.916C131.519 116.049 132.166 115.383 132.993 114.916C133.833 114.449 134.793 114.216 135.873 114.216C136.913 114.216 137.839 114.443 138.653 114.896C139.466 115.349 140.099 115.989 140.553 116.816C141.006 117.629 141.233 118.569 141.233 119.636ZM138.853 118.916C138.839 118.076 138.539 117.403 137.953 116.896C137.366 116.389 136.639 116.136 135.773 116.136C134.986 116.136 134.313 116.389 133.753 116.896C133.193 117.389 132.859 118.063 132.753 118.916H138.853ZM145.757 115.996C146.09 115.436 146.53 115.003 147.077 114.696C147.637 114.376 148.297 114.216 149.057 114.216V116.576H148.477C147.583 116.576 146.903 116.803 146.437 117.256C145.983 117.709 145.757 118.496 145.757 119.616V125.416H143.477V114.396H145.757V115.996ZM155.152 125.596C154.286 125.596 153.506 125.443 152.812 125.136C152.132 124.816 151.592 124.389 151.192 123.856C150.792 123.309 150.579 122.703 150.552 122.036H152.912C152.952 122.503 153.172 122.896 153.572 123.216C153.986 123.523 154.499 123.676 155.112 123.676C155.752 123.676 156.246 123.556 156.592 123.316C156.952 123.063 157.132 122.743 157.132 122.356C157.132 121.943 156.932 121.636 156.532 121.436C156.146 121.236 155.526 121.016 154.672 120.776C153.846 120.549 153.172 120.329 152.652 120.116C152.132 119.903 151.679 119.576 151.292 119.136C150.919 118.696 150.732 118.116 150.732 117.396C150.732 116.809 150.906 116.276 151.252 115.796C151.599 115.303 152.092 114.916 152.732 114.636C153.386 114.356 154.132 114.216 154.972 114.216C156.226 114.216 157.232 114.536 157.992 115.176C158.766 115.803 159.179 116.663 159.232 117.756H156.952C156.912 117.263 156.712 116.869 156.352 116.576C155.992 116.283 155.506 116.136 154.892 116.136C154.292 116.136 153.832 116.249 153.512 116.476C153.192 116.703 153.032 117.003 153.032 117.376C153.032 117.669 153.139 117.916 153.352 118.116C153.566 118.316 153.826 118.476 154.132 118.596C154.439 118.703 154.892 118.843 155.492 119.016C156.292 119.229 156.946 119.449 157.452 119.676C157.972 119.889 158.419 120.209 158.792 120.636C159.166 121.063 159.359 121.629 159.372 122.336C159.372 122.963 159.199 123.523 158.852 124.016C158.506 124.509 158.012 124.896 157.372 125.176C156.746 125.456 156.006 125.596 155.152 125.596Z" fill="#157F83"/>
<path d="M167.774 89.2115C167.774 89.2115 175.715 86.7893 172.019 67.9078C172.019 67.9078 171.265 53.4382 170.907 39.1167C170.907 39.1167 164.5 3.0514 140.87 10.1939C140.87 10.1939 120.507 20.2259 106 6.56568C106 6.56568 83.101 -11.1725 67 11.6626C67 11.6626 59.7332 18.0089 45 10.1939C45 10.1939 13.6828 -6.63618 21.2623 28.0222C21.2623 28.0222 29.6633 39.9634 13.284 53.9128C13.284 53.9128 -16.605 82.5649 13.284 96.6975C13.284 96.6975 35.8137 93.5954 47.6545 92.2508C48.7159 92.1341 78.0992 91.979 79.3309 92.2508C80.5627 92.5225 167.774 89.2115 167.774 89.2115Z" fill="#C2E8F4"/>
<path d="M87.0893 105.087C134.083 105.087 172.179 99.3786 172.179 92.3366C172.179 85.2945 134.083 79.5858 87.0893 79.5858C40.0958 79.5858 2 85.2945 2 92.3366C2 99.3786 40.0958 105.087 87.0893 105.087Z" fill="#014863"/>
<g opacity="0.87">
<path opacity="0.87" d="M126.997 94.7566L87.8187 85.1014C87.0458 84.9111 86.3181 84.5708 85.6771 84.1001C85.0362 83.6294 84.4945 83.0374 84.0831 82.358C83.6716 81.6786 83.3985 80.925 83.2793 80.1403C83.1601 79.3556 83.1971 78.5552 83.3882 77.7848L96.3652 25.4595C96.751 23.9036 97.741 22.5642 99.1174 21.7359C100.494 20.9077 102.144 20.6584 103.705 21.0429L142.883 30.6981C144.444 31.0829 145.788 32.07 146.619 33.4423C147.449 34.8146 147.699 36.4596 147.314 38.0157L134.338 90.341C133.952 91.897 132.962 93.2364 131.585 94.0646C130.208 94.8929 128.558 95.1422 126.997 94.7576" fill="#05233C"/>
</g>
<path d="M91.3224 26.8089C91.7625 28.7883 91.604 30.8533 90.8669 32.7429C90.1297 34.6325 88.847 36.2617 87.181 37.4246C85.515 38.5874 83.5405 39.2317 81.5072 39.2759C79.4739 39.3201 77.4731 38.7622 75.7578 37.6729C74.0426 36.5835 72.6899 35.0115 71.8708 33.1558C71.0517 31.3 70.8031 29.2439 71.1563 27.2472C71.5094 25.2506 72.4486 23.4032 73.855 21.9387C75.2615 20.4742 77.0719 19.4583 79.0575 19.0195C80.3759 18.7278 81.739 18.698 83.069 18.9316C84.399 19.1653 85.6698 19.6579 86.8087 20.3812C87.9477 21.1046 88.9326 22.0446 89.707 23.1474C90.4815 24.2503 91.0304 25.4945 91.3224 26.8089Z" fill="#02405B" stroke="white" stroke-width="1.5" stroke-miterlimit="10"/>
<path d="M81.5452 37.1434C86.0226 37.0141 89.546 33.256 89.415 28.7494C89.284 24.2429 85.5845 20.8792 81.1071 21.0086C76.6297 21.1379 73.1062 24.8961 73.2372 29.4026C73.3682 33.9091 77.0678 37.2728 81.5452 37.1434Z" fill="#02405B" stroke="white" stroke-miterlimit="10"/>
<path fill-rule="evenodd" clip-rule="evenodd" d="M78.0584 29.5931C78.1167 29.6491 78.1372 29.676 78.1664 29.6954C79.6793 30.7769 81.1921 31.8574 82.705 32.9368C82.7516 32.9754 82.8107 32.9961 82.8714 32.9949C83.1221 32.9497 83.3706 32.8872 83.6894 32.8183L79.6598 29.9744C79.984 29.8591 80.2714 29.774 80.5459 29.6512C81.539 29.2203 82.3948 28.6634 82.3419 27.3761L83.6083 27.096L83.4689 26.4723C83.0832 26.5574 82.7125 26.6436 82.3473 26.7147C82.276 26.7287 82.1539 26.7147 82.1214 26.6652C81.9237 26.3711 81.7443 26.0641 81.5444 25.7387L83.2237 25.3671L83.0886 24.7574L78 25.8809L78.1362 26.4917L78.4052 26.4325C79.1336 26.272 79.8619 26.1093 80.5924 25.9531C80.6767 25.9348 80.815 25.9326 80.8571 25.9822C81.0949 26.2633 81.311 26.5628 81.5671 26.8989L78.389 27.6013L78.5284 28.2271L81.7216 27.5226C81.6849 27.7058 81.6978 27.8835 81.6135 27.9901C81.4126 28.2562 81.2062 28.5449 80.9371 28.727C80.2163 29.2139 79.3821 29.4045 78.5306 29.5209C78.3901 29.5403 78.2442 29.565 78.0584 29.5931Z" fill="white"/>
<path d="M78.0567 37.5022C79.0716 34.1385 77.159 30.5916 73.7847 29.5799C70.4105 28.5682 66.8525 30.4748 65.8376 33.8385C64.8227 37.2021 66.7353 40.7491 70.1095 41.7608C73.4838 42.7725 77.0418 40.8659 78.0567 37.5022Z" fill="#02405B" stroke="white" stroke-miterlimit="10"/>
<path d="M74.2505 40.1797C76.7517 38.9115 77.748 35.8621 76.4757 33.3687C75.2035 30.8753 72.1445 29.8821 69.6433 31.1504C67.1421 32.4186 66.1458 35.468 67.4181 37.9614C68.6903 40.4548 71.7493 41.448 74.2505 40.1797Z" fill="#02405B" stroke="white" stroke-width="0.5" stroke-miterlimit="10"/>
<path fill-rule="evenodd" clip-rule="evenodd" d="M70.2753 36.0053C70.3121 36.0398 70.325 36.056 70.3413 36.0689L73.1573 38.0801C73.1877 38.1049 73.2262 38.1176 73.2654 38.1156C73.421 38.0876 73.5744 38.0499 73.7733 38.0079L71.2727 36.2423C71.4716 36.1712 71.652 36.1185 71.8217 36.0431C72.4387 35.7737 72.9693 35.4301 72.9369 34.6319L73.7225 34.4585L73.636 34.0706C73.3972 34.1234 73.1692 34.1784 72.9401 34.2215C72.8958 34.2301 72.8202 34.2215 72.7996 34.1902C72.6775 34.0082 72.5662 33.8175 72.442 33.6161L73.4837 33.3855L73.3994 33.0063L70.2429 33.7044L70.3272 34.0836L70.4936 34.0469C70.9464 33.9468 71.3981 33.8444 71.8509 33.7486C71.9038 33.7378 71.9892 33.7367 72.0151 33.7669C72.1632 33.9414 72.2972 34.1277 72.456 34.3356L70.4839 34.7719L70.5703 35.1597L72.5543 34.7213C72.5316 34.8355 72.5403 34.9454 72.4895 35.0111C72.3756 35.1854 72.234 35.34 72.0702 35.4689C71.6229 35.7705 71.1052 35.889 70.5768 35.9612L70.2753 36.0053Z" fill="white"/>
<path d="M72.3427 58.1355L32.2344 67.8894L37.1993 88.1776L77.3076 78.4237L72.3427 58.1355Z" fill="#243873"/>
<path d="M71.6569 59.4715L33.1812 68.5523L37.5449 86.9261L76.0206 77.8453L71.6569 59.4715Z" fill="#009DB7"/>
<path d="M69.5616 62.7387L36.8619 70.4562L39.9587 83.4954L72.6584 75.7779L69.5616 62.7387Z" fill="white"/>
<path d="M60.1969 71.8321C60.9084 74.8475 58.9851 77.8884 55.8896 78.6183C52.7941 79.3482 49.7024 77.4951 48.9859 74.4774C48.2694 71.4596 50.1978 68.4211 53.2935 67.6901C56.3893 66.9592 59.4804 68.8144 60.1969 71.8321Z" fill="#67CDEF"/>
<path d="M39.9822 70.7463C40.2764 71.9858 39.5448 73.2188 38.3485 73.5014C37.1522 73.784 35.9446 73.0074 35.65 71.7689C35.3555 70.5304 36.0873 69.2964 37.2826 69.0135C38.4779 68.7307 39.6879 69.5067 39.9822 70.7463Z" fill="#1C3F73"/>
<path fill-rule="evenodd" clip-rule="evenodd" d="M52.6445 73.4303C52.6677 73.4542 52.6923 73.4768 52.7181 73.498C53.7524 74.216 54.7869 74.9329 55.8217 75.6488C55.8537 75.6745 55.8939 75.6877 55.9349 75.6862C56.1043 75.6529 56.2725 75.6105 56.4873 75.5593L53.7307 73.6731C53.9472 73.5925 54.143 73.5323 54.3283 73.4475C54.9961 73.1434 55.5708 72.7604 55.5223 71.8907L56.3766 71.6883L56.2767 71.2673C56.0161 71.3284 55.7686 71.3905 55.5192 71.4421C55.4929 71.4485 55.4654 71.449 55.4388 71.4435C55.4123 71.4381 55.3873 71.4268 55.3657 71.4105C55.229 71.2134 55.1047 71.007 54.9614 70.7873L56.0939 70.5203L55.9964 70.1076L52.5705 70.9205L52.6692 71.3324L52.8498 71.2896C53.3417 71.1736 53.8331 71.0553 54.3261 70.944C54.3837 70.9313 54.4767 70.9283 54.5055 70.9607C54.6698 71.149 54.8188 71.3502 54.9954 71.5748L52.8443 72.0797L52.945 72.502L55.1037 71.9934C55.0802 72.1174 55.0909 72.2375 55.0377 72.31C54.914 72.5018 54.7598 72.6722 54.5813 72.8147C54.0979 73.1512 53.5351 73.2888 52.9594 73.3746L52.6445 73.4303Z" fill="#1C1C1C"/>
<path d="M74.1298 74.7105C74.4241 75.9501 73.6936 77.1833 72.4972 77.4659C71.3009 77.7485 70.092 76.9727 69.7977 75.7332C69.5034 74.4937 70.235 73.2606 71.4314 72.9781C72.6277 72.6955 73.8356 73.471 74.1298 74.7105Z" fill="#1C3F73"/>
<path d="M82.6694 37.7179L45.9998 56.6258L55.6241 75.1745L92.2938 56.2667L82.6694 37.7179Z" fill="#243873"/>
<path d="M82.319 39.1775L47.0767 57.0474L55.6639 73.877L90.9062 56.0072L82.319 39.1775Z" fill="#009DB7"/>
<path d="M81.0557 42.8451L51.104 58.0323L57.198 69.9757L87.1497 54.7885L81.0557 42.8451Z" fill="white"/>
<path d="M74.1063 53.8835C75.5111 56.6466 74.3613 60.0539 71.5258 61.4909C68.6903 62.9279 65.2475 61.854 63.8373 59.0898C62.4271 56.3256 63.5823 52.9194 66.4178 51.4813C69.2533 50.0432 72.6961 51.1194 74.1063 53.8835Z" fill="#67CDEF"/>
<path d="M54.2048 57.5806C54.784 58.716 54.3648 60.0862 53.269 60.6421C52.1733 61.1979 50.816 60.7272 50.2368 59.5929C49.6576 58.4585 50.0769 57.0872 51.1715 56.5314C52.2662 55.9755 53.6256 56.4452 54.2048 57.5806Z" fill="#1C3F73"/>
<path fill-rule="evenodd" clip-rule="evenodd" d="M67.1449 57.2122C67.1732 57.2299 67.2024 57.2461 67.2324 57.2607C68.4074 57.7153 69.5824 58.1688 70.7573 58.6212C70.7945 58.6386 70.8367 58.642 70.8762 58.6309C71.0329 58.5587 71.1863 58.4779 71.383 58.3778L68.2579 57.1928C68.4492 57.0635 68.6253 56.959 68.7853 56.833C69.3623 56.3806 69.8302 55.8732 69.5773 55.0394L70.3597 54.6419L70.163 54.2563C69.9242 54.3769 69.6984 54.4954 69.4682 54.6042C69.4441 54.6167 69.4176 54.6236 69.3905 54.6245C69.3633 54.6255 69.3364 54.6204 69.3115 54.6096C69.1321 54.4502 68.9625 54.2789 68.7712 54.099L69.8086 53.5733L69.6162 53.1952L66.4792 54.7906L66.6727 55.1676L66.838 55.0836C67.2886 54.8552 67.7381 54.6247 68.1909 54.4006C68.2439 54.3748 68.3336 54.35 68.3692 54.3748C68.5734 54.5191 68.7658 54.6796 68.9906 54.8563L67.0195 55.8527L67.2173 56.2395L69.1948 55.2376C69.2013 55.3637 69.2402 55.4779 69.2056 55.5608C69.1307 55.7763 69.0213 55.9782 68.8814 56.1587C68.4913 56.5993 67.977 56.8653 67.4377 57.084L67.1449 57.2122Z" fill="#1C1C1C"/>
<path d="M88.3271 53.4053C88.9063 54.5407 88.4882 55.911 87.3924 56.4668C86.2967 57.0227 84.9383 56.553 84.3591 55.4176C83.7799 54.2822 84.1992 52.9119 85.2949 52.3561C86.3907 51.8002 87.7479 52.2699 88.3271 53.4053Z" fill="#1C3F73"/>
<path d="M125.92 93.6632L86.7414 84.0091C85.1805 83.6243 83.8369 82.6372 83.006 81.2649C82.1752 79.8926 81.9251 78.2475 82.3109 76.6915L95.2879 24.3661C95.6737 22.8102 96.6637 21.4708 98.0401 20.6426C99.4165 19.8143 101.067 19.565 102.627 19.9495L141.806 29.6015C143.367 29.9861 144.71 30.9729 145.541 32.3451C146.372 33.7172 146.622 35.3621 146.236 36.918L133.26 89.2477C133.069 90.0182 132.728 90.7436 132.256 91.3826C131.783 92.0216 131.19 92.5616 130.508 92.9717C129.826 93.3818 129.07 93.6541 128.283 93.7729C127.496 93.8918 126.693 93.8549 125.92 93.6643" fill="#034963"/>
<path d="M94.3067 46.6529C94.764 46.5734 95.2332 46.597 95.6802 46.7219C97.4362 47.2088 98.4703 49.1025 97.9883 50.9478C97.6339 52.3095 96.5565 53.2671 95.3106 53.4826C94.8532 53.5611 94.3841 53.5372 93.9371 53.4125C92.1833 52.9256 91.1503 51.0329 91.6311 49.1844C91.9856 47.8239 93.0629 46.8673 94.3067 46.6529Z" fill="#0CB5BB"/>
<path d="M123.188 53.7691C123.645 53.6904 124.115 53.7144 124.562 53.8391C126.316 54.326 127.35 56.2187 126.869 58.0672C126.514 59.4277 125.438 60.3832 124.193 60.5987C123.736 60.6773 123.267 60.6534 122.82 60.5286C121.066 60.0417 120.033 58.1512 120.513 56.3027C120.667 55.6687 121.002 55.0926 121.476 54.6432C121.951 54.1939 122.545 53.8904 123.188 53.7691Z" fill="#0CB5BB"/>
<path d="M133.637 56.11L133.966 56.1401C134.153 56.1576 134.338 56.1918 134.518 56.2425C136.275 56.7294 137.306 58.6231 136.828 60.4684C136.471 61.83 135.394 62.7877 134.149 63.0021C133.878 63.049 133.602 63.0599 133.329 63.0344L133.004 63.0042C133.278 63.0297 133.555 63.0189 133.826 62.9719C135.069 62.7565 136.147 61.7999 136.503 60.4372C136.982 58.5919 135.95 56.6981 134.194 56.2112C134.013 56.1614 133.829 56.1275 133.642 56.11" fill="#157F83"/>
<path d="M132.815 56.1422C133.273 56.0638 133.742 56.0873 134.189 56.2112C135.945 56.6981 136.977 58.5918 136.498 60.4371C136.141 61.7998 135.064 62.7564 133.82 62.9719C133.363 63.0505 132.894 63.0266 132.447 62.9019C130.692 62.4149 129.659 60.5222 130.14 58.6759C130.494 57.3143 131.57 56.3577 132.815 56.1422Z" fill="#0CB5BB"/>
<path d="M103.934 49.026C104.391 48.9465 104.86 48.97 105.306 49.095C107.063 49.5819 108.096 51.4724 107.615 53.3209C107.261 54.6815 106.184 55.6381 104.94 55.8524C104.483 55.9314 104.013 55.9078 103.566 55.7835C101.809 55.2966 100.774 53.4082 101.257 51.5575C101.612 50.197 102.69 49.2404 103.934 49.026Z" fill="#0CB5BB"/>
<path d="M113.561 51.3991C114.019 51.3196 114.488 51.3431 114.936 51.4681C116.689 51.955 117.722 53.8455 117.242 55.694C116.887 57.0535 115.81 58.0111 114.566 58.2255C114.109 58.3045 113.639 58.2809 113.192 58.1566C111.436 57.6697 110.403 55.7791 110.884 53.9306C111.239 52.5701 112.316 51.6135 113.561 51.3991Z" fill="#0CB5BB"/>
<path d="M92.9106 55.5627L93.2348 55.5929C93.4218 55.6121 93.6066 55.6481 93.787 55.7006C95.5441 56.1875 96.5771 58.0802 96.0962 59.9266C95.7472 61.2796 94.6688 62.2415 93.4261 62.457C93.1553 62.5039 92.8795 62.5148 92.6059 62.4893L92.2817 62.4591C92.5554 62.4836 92.8311 62.4727 93.1019 62.4268C94.3457 62.2114 95.4241 61.2537 95.7786 59.8921C96.2594 58.0468 95.2264 56.1531 93.4693 55.6662C93.2886 55.6163 93.1038 55.5824 92.9171 55.5649" fill="#157F83"/>
<path d="M92.0905 55.5918C92.5474 55.5128 93.0162 55.5363 93.4629 55.6607C95.2199 56.1476 96.253 58.0414 95.771 59.8867C95.4177 61.2483 94.3392 62.2059 93.0955 62.4203C92.6386 62.4998 92.1696 62.4762 91.7231 62.3514C89.966 61.8645 88.933 59.9718 89.4138 58.1254C89.7683 56.7638 90.8467 55.8061 92.0905 55.5918Z" fill="#0CB5BB"/>
<path d="M120.972 62.7079C121.429 62.6294 121.898 62.6533 122.345 62.778C124.099 63.2649 125.132 65.1576 124.651 67.0061C124.297 68.3666 123.221 69.3232 121.976 69.5376C121.518 69.6161 121.049 69.5922 120.602 69.4676C118.848 68.9806 117.815 67.0901 118.296 65.2416C118.651 63.88 119.727 62.9234 120.972 62.7079Z" fill="#0CB5BB"/>
<path d="M130.599 65.081C131.056 65.0026 131.526 65.0265 131.973 65.1511C133.729 65.6369 134.762 67.5307 134.281 69.377C133.927 70.7386 132.85 71.6952 131.604 71.9107C131.146 71.9892 130.677 71.9653 130.23 71.8406C128.476 71.3537 127.442 69.4611 127.924 67.6147C128.278 66.2531 129.355 65.2965 130.599 65.081Z" fill="#0CB5BB"/>
<path d="M102.537 57.9326L102.866 57.9628C103.054 57.9821 103.239 58.0181 103.42 58.0705C105.176 58.5574 106.209 60.448 105.728 62.2965C105.373 63.6527 104.295 64.6115 103.051 64.8269C102.78 64.8739 102.503 64.8847 102.229 64.8592L101.899 64.8291C102.174 64.8545 102.45 64.8437 102.722 64.7967C103.965 64.5813 105.044 63.6247 105.398 62.2631C105.879 60.4157 104.846 58.524 103.09 58.0371C102.909 57.9869 102.724 57.953 102.537 57.9359" fill="#157F83"/>
<path d="M101.717 57.9649C102.174 57.8854 102.643 57.909 103.09 58.0339C104.846 58.5208 105.879 60.4113 105.398 62.2598C105.044 63.6215 103.965 64.578 102.722 64.7924C102.265 64.8718 101.796 64.8486 101.349 64.7245C99.5922 64.2355 98.5602 62.3493 99.0454 60.4964C99.4009 59.1359 100.478 58.1793 101.722 57.9649" fill="#0CB5BB"/>
<path d="M111.345 60.3381C111.802 60.2586 112.272 60.2821 112.719 60.407C114.473 60.8939 115.506 62.7844 115.025 64.633C114.87 65.2664 114.535 65.842 114.061 66.2909C113.586 66.7398 112.992 67.043 112.35 67.1644C111.892 67.2429 111.423 67.2193 110.976 67.0955C109.219 66.6086 108.186 64.7181 108.667 62.8695C109.021 61.509 110.1 60.5524 111.345 60.3381Z" fill="#0CB5BB"/>
<path d="M89.8741 64.5306C90.331 64.4511 90.7999 64.4747 91.2464 64.5996C93.0024 65.0865 94.0355 66.9802 93.5546 68.8255C93.2002 70.1871 92.1217 71.1448 90.878 71.3602C90.421 71.4388 89.9521 71.4149 89.5056 71.2902C87.7496 70.8033 86.7155 68.9106 87.1974 67.0643C87.5508 65.7026 88.6292 64.745 89.8741 64.5306Z" fill="#0CB5BB"/>
<path d="M99.5002 66.9038C99.957 66.8243 100.426 66.8478 100.873 66.9727C102.63 67.4596 103.663 69.3513 103.182 71.1987C103.027 71.8327 102.692 72.4088 102.217 72.8581C101.742 73.3074 101.147 73.6109 100.504 73.7324C100.047 73.8113 99.579 73.7878 99.1328 73.6634C97.3757 73.1765 96.3426 71.2838 96.8235 69.4353C97.1779 68.0758 98.2553 67.1182 99.5002 66.9038Z" fill="#0CB5BB"/>
<path d="M109.95 69.2435L110.274 69.2736C110.461 69.2913 110.645 69.3251 110.826 69.3749C112.58 69.8629 113.613 71.7534 113.132 73.602C112.778 74.9614 111.701 75.918 110.456 76.1335C110.186 76.18 109.91 76.1905 109.636 76.1647L109.311 76.1378C109.585 76.1633 109.861 76.1524 110.132 76.1054C111.377 75.89 112.453 74.9345 112.808 73.5739C113.289 71.7254 112.256 69.8349 110.502 69.348C110.321 69.2981 110.136 69.2642 109.95 69.2467" fill="#157F83"/>
<path d="M109.127 69.2769C109.585 69.1994 110.053 69.2248 110.5 69.3512C112.253 69.8381 113.287 71.7286 112.806 73.5772C112.451 74.9377 111.375 75.8943 110.13 76.1086C109.673 76.1876 109.204 76.164 108.757 76.0397C107.001 75.5528 105.97 73.6612 106.451 71.8127C106.605 71.1791 106.939 70.6034 107.414 70.1546C107.888 69.7058 108.482 69.4029 109.125 69.2823" fill="#0CB5BB"/>
<path d="M87.6566 73.4694C88.1135 73.3899 88.5824 73.4135 89.029 73.5383C90.785 74.0253 91.8191 75.919 91.3371 77.7643C90.9827 79.127 89.9054 80.0836 88.6605 80.2991C88.2039 80.3777 87.7354 80.3538 87.2892 80.2291C85.5322 79.7422 84.4991 77.8494 84.98 76.0031C85.3344 74.6414 86.4129 73.6838 87.6566 73.4694Z" fill="#0CB5BB"/>
<path d="M97.2839 75.8426C97.7415 75.7631 98.2112 75.7867 98.6585 75.9116C100.412 76.3985 101.445 78.2901 100.964 80.1376C100.81 80.7714 100.475 81.3474 100.001 81.7968C99.5261 82.2461 98.9319 82.5496 98.2889 82.6712C97.8323 82.7502 97.3639 82.7266 96.9176 82.6023C95.1616 82.1154 94.1275 80.2227 94.6083 78.3741C94.9628 77.0147 96.0412 76.057 97.2861 75.8426" fill="#0CB5BB"/>
<path d="M106.911 78.2157C107.368 78.1361 107.837 78.1597 108.284 78.2846C110.039 78.7715 111.072 80.6631 110.591 82.5106C110.237 83.8711 109.16 84.8277 107.916 85.0421C107.459 85.1211 106.989 85.0975 106.542 84.9732C104.788 84.4852 103.755 82.5946 104.235 80.7461C104.59 79.3866 105.667 78.43 106.911 78.2157Z" fill="#0CB5BB"/>
<path d="M125.999 89.7485C125.123 89.532 124.369 88.9778 123.903 88.2076C123.437 87.4374 123.297 86.5142 123.513 85.641L125.708 76.7916C125.936 75.9309 126.495 75.1942 127.264 74.7404C128.032 74.2867 128.949 74.1521 129.816 74.3658C130.683 74.5795 131.431 75.1244 131.898 75.8828C132.366 76.6413 132.516 77.5527 132.316 78.4204L130.122 87.2687C129.905 88.142 129.349 88.8936 128.576 89.3582C127.803 89.8228 126.877 89.9624 126.001 89.7463" fill="#6ECDEA"/>
<path d="M116.065 87.3C115.189 87.0835 114.435 86.5293 113.969 85.7591C113.503 84.9889 113.363 84.0657 113.579 83.1925L115.774 74.3441C115.881 73.9116 116.073 73.5044 116.338 73.1457C116.603 72.787 116.936 72.4838 117.319 72.2535C117.702 72.0233 118.126 71.8704 118.568 71.8036C119.01 71.7368 119.461 71.7575 119.894 71.8643C120.328 71.9712 120.737 72.1622 121.097 72.4265C121.456 72.6908 121.761 73.0231 121.992 73.4045C122.223 73.7859 122.376 74.209 122.443 74.6495C122.51 75.09 122.489 75.5393 122.382 75.9718L120.188 84.8213C119.971 85.6945 119.415 86.4461 118.642 86.9107C117.869 87.3753 116.943 87.515 116.067 87.2989" fill="#6ECDEA"/>
<path d="M134.194 52.5044L98.344 43.6712C97.1903 43.3864 96.1972 42.6566 95.5832 41.6421C94.9692 40.6276 94.7845 39.4115 95.0697 38.2613L97.8393 27.0905C98.125 25.9403 98.8571 24.9504 99.8748 24.3383C100.892 23.7262 102.112 23.5421 103.266 23.8264L139.116 32.6597C140.27 32.9445 141.263 33.6743 141.878 34.6887C142.492 35.7032 142.677 36.9192 142.392 38.0696L139.621 49.2394C139.48 49.809 139.227 50.3454 138.878 50.8178C138.529 51.2902 138.09 51.6894 137.586 51.9926C137.082 52.2958 136.523 52.4971 135.941 52.5849C135.359 52.6727 134.766 52.6454 134.194 52.5044Z" fill="#63B6CC"/>
</svg>
