<svg width="173" height="133" viewBox="0 0 173 133" fill="none" xmlns="http://www.w3.org/2000/svg">
<path d="M51.5035 122.615H45.6835L44.6835 125.455H42.3035L47.2835 111.535H49.9235L54.9035 125.455H52.5035L51.5035 122.615ZM50.8635 120.755L48.6035 114.295L46.3235 120.755H50.8635ZM56.3088 119.935C56.3088 118.802 56.5355 117.808 56.9888 116.955C57.4555 116.088 58.0955 115.422 58.9088 114.955C59.7222 114.488 60.6555 114.255 61.7088 114.255C63.0422 114.255 64.1422 114.575 65.0088 115.215C65.8888 115.842 66.4822 116.742 66.7888 117.915H64.3288C64.1288 117.368 63.8088 116.942 63.3688 116.635C62.9288 116.328 62.3755 116.175 61.7088 116.175C60.7755 116.175 60.0288 116.508 59.4688 117.175C58.9222 117.828 58.6488 118.748 58.6488 119.935C58.6488 121.122 58.9222 122.048 59.4688 122.715C60.0288 123.382 60.7755 123.715 61.7088 123.715C63.0288 123.715 63.9022 123.135 64.3288 121.975H66.7888C66.4688 123.095 65.8688 123.988 64.9888 124.655C64.1088 125.308 63.0155 125.635 61.7088 125.635C60.6555 125.635 59.7222 125.402 58.9088 124.935C58.0955 124.455 57.4555 123.788 56.9888 122.935C56.5355 122.068 56.3088 121.068 56.3088 119.935ZM71.721 116.295V122.395C71.721 122.808 71.8144 123.108 72.001 123.295C72.201 123.468 72.5344 123.555 73.001 123.555H74.401V125.455H72.601C71.5744 125.455 70.7877 125.215 70.241 124.735C69.6944 124.255 69.421 123.475 69.421 122.395V116.295H68.121V114.435H69.421V111.695H71.721V114.435H74.401V116.295H71.721ZM77.6624 112.975C77.2491 112.975 76.9024 112.835 76.6224 112.555C76.3424 112.275 76.2024 111.928 76.2024 111.515C76.2024 111.102 76.3424 110.755 76.6224 110.475C76.9024 110.195 77.2491 110.055 77.6624 110.055C78.0624 110.055 78.4024 110.195 78.6824 110.475C78.9624 110.755 79.1024 111.102 79.1024 111.515C79.1024 111.928 78.9624 112.275 78.6824 112.555C78.4024 112.835 78.0624 112.975 77.6624 112.975ZM78.7824 114.435V125.455H76.5024V114.435H78.7824ZM86.0359 123.415L89.1559 114.435H91.5759L87.3759 125.455H84.6559L80.4759 114.435H82.9159L86.0359 123.415ZM94.4593 112.975C94.046 112.975 93.6993 112.835 93.4193 112.555C93.1393 112.275 92.9993 111.928 92.9993 111.515C92.9993 111.102 93.1393 110.755 93.4193 110.475C93.6993 110.195 94.046 110.055 94.4593 110.055C94.8593 110.055 95.1993 110.195 95.4793 110.475C95.7593 110.755 95.8993 111.102 95.8993 111.515C95.8993 111.928 95.7593 112.275 95.4793 112.555C95.1993 112.835 94.8593 112.975 94.4593 112.975ZM95.5793 114.435V125.455H93.2993V114.435H95.5793ZM101.233 116.295V122.395C101.233 122.808 101.326 123.108 101.513 123.295C101.713 123.468 102.046 123.555 102.513 123.555H103.913V125.455H102.113C101.086 125.455 100.299 125.215 99.7528 124.735C99.2061 124.255 98.9328 123.475 98.9328 122.395V116.295H97.6328V114.435H98.9328V111.695H101.233V114.435H103.913V116.295H101.233ZM107.174 112.975C106.761 112.975 106.414 112.835 106.134 112.555C105.854 112.275 105.714 111.928 105.714 111.515C105.714 111.102 105.854 110.755 106.134 110.475C106.414 110.195 106.761 110.055 107.174 110.055C107.574 110.055 107.914 110.195 108.194 110.475C108.474 110.755 108.614 111.102 108.614 111.515C108.614 111.928 108.474 112.275 108.194 112.555C107.914 112.835 107.574 112.975 107.174 112.975ZM108.294 114.435V125.455H106.014V114.435H108.294ZM121.388 119.675C121.388 120.088 121.361 120.462 121.308 120.795H112.888C112.954 121.675 113.281 122.382 113.868 122.915C114.454 123.448 115.174 123.715 116.028 123.715C117.254 123.715 118.121 123.202 118.628 122.175H121.088C120.754 123.188 120.148 124.022 119.268 124.675C118.401 125.315 117.321 125.635 116.028 125.635C114.974 125.635 114.028 125.402 113.188 124.935C112.361 124.455 111.708 123.788 111.228 122.935C110.761 122.068 110.528 121.068 110.528 119.935C110.528 118.802 110.754 117.808 111.208 116.955C111.674 116.088 112.321 115.422 113.148 114.955C113.988 114.488 114.948 114.255 116.028 114.255C117.068 114.255 117.994 114.482 118.808 114.935C119.621 115.388 120.254 116.028 120.708 116.855C121.161 117.668 121.388 118.608 121.388 119.675ZM119.008 118.955C118.994 118.115 118.694 117.442 118.108 116.935C117.521 116.428 116.794 116.175 115.928 116.175C115.141 116.175 114.468 116.428 113.908 116.935C113.348 117.428 113.014 118.102 112.908 118.955H119.008ZM127.631 125.635C126.765 125.635 125.985 125.482 125.291 125.175C124.611 124.855 124.071 124.428 123.671 123.895C123.271 123.348 123.058 122.742 123.031 122.075H125.391C125.431 122.542 125.651 122.935 126.051 123.255C126.465 123.562 126.978 123.715 127.591 123.715C128.231 123.715 128.725 123.595 129.071 123.355C129.431 123.102 129.611 122.782 129.611 122.395C129.611 121.982 129.411 121.675 129.011 121.475C128.625 121.275 128.005 121.055 127.151 120.815C126.325 120.588 125.651 120.368 125.131 120.155C124.611 119.942 124.158 119.615 123.771 119.175C123.398 118.735 123.211 118.155 123.211 117.435C123.211 116.848 123.385 116.315 123.731 115.835C124.078 115.342 124.571 114.955 125.211 114.675C125.865 114.395 126.611 114.255 127.451 114.255C128.705 114.255 129.711 114.575 130.471 115.215C131.245 115.842 131.658 116.702 131.711 117.795H129.431C129.391 117.302 129.191 116.908 128.831 116.615C128.471 116.322 127.985 116.175 127.371 116.175C126.771 116.175 126.311 116.288 125.991 116.515C125.671 116.742 125.511 117.042 125.511 117.415C125.511 117.708 125.618 117.955 125.831 118.155C126.045 118.355 126.305 118.515 126.611 118.635C126.918 118.742 127.371 118.882 127.971 119.055C128.771 119.268 129.425 119.488 129.931 119.715C130.451 119.928 130.898 120.248 131.271 120.675C131.645 121.102 131.838 121.668 131.851 122.375C131.851 123.002 131.678 123.562 131.331 124.055C130.985 124.548 130.491 124.935 129.851 125.215C129.225 125.495 128.485 125.635 127.631 125.635Z" fill="#157F83"/>
<path d="M165.508 92.608C165.508 92.608 176.272 82.5705 172.634 64.325C172.634 64.325 174.607 52.0979 168.598 44.2103C168.598 44.2103 163.712 14.7186 138.967 16.2632C138.967 16.2632 112.863 17.1506 98.5518 3.9494C98.5518 3.9494 83.4008 -9.30809 67.5168 12.7568C67.5168 12.7568 59.8178 19.9004 45.2854 12.3479C45.2854 12.3479 13.4978 0.000961241 20.9755 33.4907C20.9755 33.4907 29.2629 45.0281 13.105 58.5041C13.105 58.5041 -16.3812 74.7796 13.105 88.4361C13.105 88.4361 35.3303 96.8478 47.0104 95.5549C48.064 95.439 77.046 95.2933 78.2621 95.5549C79.4783 95.8165 165.508 92.608 165.508 92.608Z" fill="#C2E8F4"/>
<path d="M86.7041 103.968C133.141 103.968 170.785 98.3093 170.785 91.329C170.785 84.3487 133.141 78.69 86.7041 78.69C40.2677 78.69 2.62354 84.3487 2.62354 91.329C2.62354 98.3093 40.2677 103.968 86.7041 103.968Z" fill="#014863"/>
<path d="M44.5764 51.7188L48.1889 57.2732C48.1889 57.2732 50.5286 61.1118 54.531 61.6187C54.531 61.6187 49.7783 56.2843 46.7118 50.9747L44.5764 51.7188Z" fill="#FBBA8C"/>
<path d="M102.633 83.2327C103.245 82.5355 103.218 81.4655 103.987 80.7651C104.911 79.9634 106.171 79.9322 106.94 79.4268C108.796 78.2133 108.286 76.6675 110.142 75.454C111.846 74.4386 113.086 73.7258 113.204 72.1644C113.181 71.1927 112.371 70.2381 112.978 69.3474C113.736 68.2556 115.759 67.4289 116.254 68.5847C116.592 69.5502 115.366 70.8464 115.389 71.8181C115.438 73.7648 117.219 75.8627 116.481 77.828C116.037 78.9105 114.323 79.536 113.405 80.5327C112.484 81.4312 112.36 82.7975 110.807 83.5182C108.779 84.4431 103.446 84.5757 102.934 82.9332" fill="#5493C8"/>
<path d="M113.9 72.4374C113.922 73.1035 114.014 73.8054 113.814 74.4543C113.614 75.1031 113.126 75.66 112.625 76.1248C111.916 76.7815 111.161 77.318 110.754 78.2227C110.297 79.2319 109.879 80.213 109.245 81.1302C108.502 82.1642 107.638 83.1066 106.673 83.9378C106.58 84.0205 106.717 84.1593 106.811 84.0751C107.732 83.278 108.563 82.3826 109.289 81.4047C109.982 80.4376 110.45 79.3879 110.93 78.3085C111.446 77.1464 112.619 76.5724 113.388 75.6069C114.157 74.6414 114.138 73.6385 114.098 72.4359C114.098 72.3111 113.898 72.3095 113.903 72.4359L113.9 72.4374Z" fill="white"/>
<path d="M107.238 84.1873C108.919 83.5759 109.532 82.3671 110.418 80.9336C111.541 79.1165 113.725 78.4208 115.279 77.0528C115.372 76.9686 115.235 76.8314 115.14 76.914C113.745 78.1447 111.813 78.7983 110.637 80.2723C110.195 80.826 109.907 81.4795 109.536 82.0785C109.006 82.9774 108.173 83.6581 107.187 83.9986C107.07 84.0423 107.119 84.231 107.238 84.1873Z" fill="white"/>
<path d="M99.6777 84.4743C97.9386 84.0298 96.7984 82.4029 96.9263 81.2315C97.0448 79.6717 99.5498 79.3177 100.143 77.8421C100.582 76.5662 98.6857 76.1263 98.497 74.8644C98.1382 73.0239 100.96 72.7587 102.027 71.3705C102.79 70.4752 102.097 67.8641 104.922 67.6956C106.806 67.6504 106.842 69.1088 106.867 70.0821C106.767 72.4218 106.491 73.9816 107.179 76.4024C108.013 78.4301 108.682 80.0648 107.001 81.9568C105.936 83.3466 101.145 86.6768 99.046 84.1983" fill="#015F93"/>
<path d="M101.779 84.8907C104.421 83.5353 106.584 80.67 106.363 77.5878C106.355 77.463 106.16 77.4615 106.168 77.5878C106.385 80.606 104.265 83.3965 101.68 84.7223C101.568 84.78 101.666 84.9485 101.779 84.8907Z" fill="white"/>
<path d="M100.266 84.7099C100.121 83.9472 100.518 83.0144 100.275 82.2143C99.963 81.2784 99.1706 80.9415 98.854 80.3051C98.0944 78.7765 98.9725 77.5474 98.2129 76.0203C97.4798 74.7054 96.9386 73.7711 97.4174 72.372C97.7793 71.5234 98.6387 70.8886 98.567 69.9559C98.4687 68.8094 97.4642 67.5787 96.7311 68.4694C96.1696 69.2321 96.4956 70.6749 96.1337 71.5234C95.4084 73.2189 93.518 74.6165 93.2918 76.5257C93.192 77.5864 94.0717 78.5534 94.3041 79.6656C94.5755 80.6825 94.1684 81.9132 94.9093 82.9318C95.8764 84.2467 99.2611 85.691 100.175 84.3761" fill="#5493C8"/>
<path d="M96.7282 72.3579C96.3554 73.2095 95.9483 74.0268 96.0138 74.9814C96.0856 76.0343 96.697 76.9826 96.6861 78.0433C96.6752 79.104 96.5114 80.1381 96.5972 81.2097C96.6986 82.2927 96.9205 83.3609 97.2585 84.3948C97.2944 84.5149 97.4831 84.4634 97.4457 84.3433C96.8124 82.3156 96.7313 80.4079 96.8623 78.3022C96.9185 77.4209 96.5816 76.691 96.3617 75.8549C96.0263 74.5728 96.3882 73.6213 96.8967 72.4577C96.945 72.3438 96.7781 72.244 96.7282 72.3579Z" fill="white"/>
<path d="M97.0852 84.2575C95.9559 82.9723 96.4613 81.4686 96.1712 79.9509C95.9013 78.5581 94.9451 77.4069 94.5068 76.0702C94.4678 75.9516 94.2806 76.0016 94.3196 76.1217C94.8281 77.6815 95.9809 78.9917 96.0557 80.6794C96.1166 82.0489 95.9824 83.2967 96.9479 84.3948C97.0306 84.4899 97.1679 84.3511 97.0852 84.2575Z" fill="white"/>
<path d="M148.482 58.9171C154.653 58.9171 159.656 53.7718 159.656 47.4246C159.656 41.0774 154.653 35.9321 148.482 35.9321C142.311 35.9321 137.308 41.0774 137.308 47.4246C137.308 53.7718 142.311 58.9171 148.482 58.9171Z" fill="#7DB4BC"/>
<path d="M146.52 90.6527L148.08 44.9991L149.639 90.6527H146.52Z" fill="#4289A7"/>
<path d="M147.704 54.5887L152.89 48.1857L153.263 48.4712L148.076 54.8663L147.704 54.5887ZM148.076 54.8726L152.89 48.1857L153.263 48.4712L148.452 55.1564L148.076 54.8726Z" fill="#4289A7"/>
<path d="M147.847 58.7252L141.895 48.7862L142.291 48.5382L148.243 58.4772L147.847 58.7252ZM148.243 58.4772L141.895 48.7862L142.291 48.5382L148.64 58.2292L148.243 58.4772Z" fill="#4289A7"/>
<path d="M150.918 50.6534L150.58 46.6931L151.834 50.4646L150.918 50.6534Z" fill="#4289A7"/>
<path d="M147.607 48.9033L144.331 43.0213L144.732 42.7795L148.008 48.6615L147.607 48.9033ZM148.008 48.6615L144.325 43.0213L144.726 42.7795L148.409 48.4197L148.008 48.6615Z" fill="#4289A7"/>
<path d="M163.947 65.5696C163.947 69.7655 160.641 73.1674 156.56 73.1674C152.48 73.1674 149.175 69.7608 149.175 65.5696C149.175 61.3785 152.481 57.9719 156.56 57.9719C160.639 57.9719 163.947 61.3738 163.947 65.5696Z" fill="#7DB4BC"/>
<path d="M155.367 90.4905L156.927 65.5697L158.486 90.4905H155.367Z" fill="#4289A7"/>
<path d="M156.556 70.6764L159.471 67.2449L159.842 67.5288L156.927 70.9603L156.556 70.6764ZM156.927 70.9603L159.471 67.2464L159.842 67.5303L157.3 71.2442L156.927 70.9603Z" fill="#4289A7"/>
<path d="M156.619 73.1768L153.461 67.6941L153.857 67.4461L157.016 72.9272L156.619 73.1768ZM157.016 72.9272L153.461 67.6941L153.857 67.4461L157.412 72.6792L157.016 72.9272Z" fill="#4289A7"/>
<path d="M158.267 68.7003L158.292 66.4947L159.184 68.5115L158.267 68.7003Z" fill="#4289A7"/>
<path d="M156.487 67.8127L154.786 64.5449L155.19 64.3016L156.888 67.5771L156.487 67.8127ZM156.888 67.5693L154.786 64.5449L155.19 64.3016L157.293 67.326L156.888 67.5693Z" fill="#4289A7"/>
<path d="M130.535 58.9546C130.535 58.9546 111.7 87.7889 111.936 89.3549L108.746 88.1071C108.746 88.1071 121.92 58.3151 122.502 57.6912C123.084 57.0672 129.632 59.2509 129.632 59.2509" fill="#0284A8"/>
<path d="M128.599 56.2312C129.254 60.1666 130.457 63.7759 131.223 67.6021C131.77 70.0089 132.864 71.539 133.628 73.8413C135.269 78.7624 138.658 80.7293 142.595 83.5728C144.453 82.5886 145.219 82.261 143.47 80.6201C142.379 79.5283 141.064 78.6532 140.079 77.5582C138.222 75.153 137.237 71.982 136.69 69.1354C136.144 66.4026 136.253 63.7791 136.035 61.0447C135.926 59.4038 135.706 58.5304 134.066 57.8737C132.755 57.4369 130.457 56.7818 129.036 57.217C129.036 57.3278 129.036 57.3278 128.927 57.3278" fill="#0284A8"/>
<path d="M124.795 39.4276C126.545 40.4118 127.528 42.0527 129.387 43.037C130.919 43.8013 132.012 43.9104 133.754 43.9104C137.145 44.0196 140.315 44.8947 143.486 46.0941C145.018 46.6416 147.204 47.0784 148.407 48.1718C148.953 48.7193 149.937 52.1087 150.812 50.9061C151.904 49.3744 148.953 48.6101 151.251 47.4059C152.781 46.6416 155.295 48.9377 156.061 48.3917C158.466 46.86 150.703 45.0007 150.046 44.8916C147.204 44.6732 145.018 43.143 142.283 42.1588C138.348 40.8455 134.302 39.9751 130.256 38.8832C128.835 38.5541 127.412 37.899 125.888 38.0082C124.364 38.1174 122.936 39.32 125.232 39.7567" fill="#FBBA8C"/>
<path d="M100.958 49.3775C104.675 51.1276 108.721 50.9092 111.236 47.7382C112.328 46.3172 113.533 45.2222 114.625 43.8012C115.5 42.4895 116.484 40.6302 117.798 39.7551C119.655 38.4434 120.749 39.3184 121.073 41.2869C121.182 41.942 121.401 44.5624 120.853 45.113C119.651 46.2049 120.229 43.7092 118.913 44.2583C117.821 44.695 115.386 47.1907 114.84 48.1749C113.09 51.346 111.565 52.0026 107.951 52.1118C106.748 52.1118 105.436 52.4394 104.125 52.3302C103.577 52.3302 102.156 52.3302 101.719 51.8935C101.172 51.1276 101.938 50.1434 101.609 49.3775" fill="#FBBA8C"/>
<path d="M100.91 49.4617C104.351 51.0418 108.536 51.0839 111.155 47.9939C112.012 46.9801 112.887 45.9896 113.764 44.9929C114.458 44.1699 115.089 43.296 115.653 42.3787C116.456 41.1402 119.272 37.5121 120.624 40.1217C120.998 40.8423 121.056 41.7095 121.092 42.5081C121.128 43.2054 121.267 44.3799 120.833 44.9742C120.229 45.8149 120.053 44.6809 119.741 44.33C119.498 44.0508 119.205 44.0461 118.871 44.174C118.294 44.3861 117.779 44.8697 117.322 45.2659C116.664 45.8446 116.048 46.4701 115.48 47.1376C114.43 48.3761 113.867 49.9577 112.494 50.9217C110.779 52.1289 108.595 51.895 106.62 52.1024C105.442 52.2479 104.252 52.2782 103.067 52.1929C102.795 52.183 102.525 52.1385 102.264 52.0603C101.609 51.8201 101.576 51.2367 101.671 50.6565C101.746 50.2057 101.838 49.7971 101.699 49.3478C101.662 49.2277 101.473 49.2792 101.51 49.3993C101.751 50.1714 100.986 51.427 101.744 52.0385C102.27 52.4612 103.231 52.4082 103.858 52.4222C105.151 52.4503 106.4 52.2662 107.687 52.2101C108.643 52.1711 109.599 52.1445 110.538 51.9433C112.075 51.6127 113.245 50.7517 114.145 49.4757C114.677 48.7208 115.07 47.9159 115.675 47.2062C116.31 46.466 117.006 45.7804 117.756 45.1567C118.314 44.6887 119.289 43.7997 119.769 44.7589C119.907 45.0334 119.983 45.4749 120.364 45.492C121.633 45.5435 121.317 42.8076 121.27 42.165C121.187 41.0451 120.958 39.2154 119.554 39.0454C117.643 38.8146 116.144 41.2494 115.293 42.5877C114.418 43.9619 113.377 45.1208 112.295 46.3312C111.295 47.4511 110.474 48.6709 109.144 49.4383C106.616 50.8952 103.557 50.46 101.013 49.2917C100.9 49.2402 100.801 49.4087 100.915 49.4601L100.91 49.4617Z" fill="white"/>
<path d="M118.453 34.5096C118.453 34.5096 116.375 34.5096 117.032 36.4219C117.492 36.5834 117.993 36.5834 118.453 36.4219C118.453 36.4219 119.305 38.9675 121.406 39.4292C121.406 39.4292 124.467 38.5541 124.795 36.9694C125.123 35.3846 123.263 31.6661 122.171 31.5569C121.08 31.4477 118.453 32.5942 118.453 34.5096Z" fill="#FBBA8C"/>
<path d="M120.312 35.4875C120.312 35.4875 123.263 31.9499 125.998 32.3539C125.998 32.3539 124.137 31.0171 122.171 31.5553C120.206 32.0934 122.499 31.4274 122.499 31.4274C122.499 31.4274 120.424 31.5288 118.072 34.547L120.312 35.4875Z" fill="#719FB0"/>
<path d="M100.52 37.0223L99.584 37.5074C99.584 37.5074 98.7012 48.1031 96.806 51.6735C96.806 51.6735 97.0244 53.6872 98.9897 52.352C98.9897 52.352 100.847 38.9378 102.36 37.5074L100.52 37.0223Z" fill="#132A50"/>
<path d="M103.702 43.3847C103.726 43.3817 103.747 43.3702 103.763 43.3522C103.779 43.3343 103.788 43.3112 103.788 43.2872C103.788 43.2633 103.779 43.2402 103.763 43.2223C103.747 43.2043 103.726 43.1928 103.702 43.1898C103.678 43.1928 103.656 43.2043 103.641 43.2223C103.625 43.2402 103.616 43.2633 103.616 43.2872C103.616 43.3112 103.625 43.3343 103.641 43.3522C103.656 43.3702 103.678 43.3817 103.702 43.3847Z" fill="#070808"/>
<path d="M120.323 38.1844C119.448 39.2045 119.813 41.3196 120.103 42.4863C120.25 43.2147 120.541 44.5998 121.417 44.8182C122.508 45.1098 123.238 43.8714 123.53 42.9963C123.895 41.7485 124.187 39.5648 123.895 38.1844C123.603 37.0176 123.383 37.2376 122.29 37.4559C121.488 37.5293 119.813 37.3826 120.031 38.5478" fill="#FBBA8C"/>
<path d="M125.79 38.6227C123.165 39.1327 124.698 45.2565 127.904 44.5265C128.996 44.3081 130.087 42.558 129.581 41.3913C129.216 40.5178 128.195 40.4445 127.539 40.0078C126.81 39.5695 126.374 38.9159 125.499 38.5494" fill="#FBBA8C"/>
<path d="M119.004 39.2092C119.768 40.1934 119.877 42.1619 119.877 43.4736C119.768 45.7697 119.549 46.3171 120.752 48.284C121.844 49.9249 122.936 51.8934 123.266 53.8619C123.705 56.2671 122.721 56.7038 121.083 58.1263C122.065 58.9998 124.581 59.109 126.002 59.6565C127.862 60.4223 129.278 60.6407 131.36 60.5315C133.443 60.4223 135.406 59.7657 137.484 59.6565C139.452 59.5473 140.983 60.4223 140.437 58.0156C139.452 54.517 135.843 51.5643 133.985 48.5009C133.11 47.1875 132.781 45.6573 132.017 44.3456C131.688 43.6889 131.36 43.0338 130.704 42.4863C129.501 41.5021 130.267 41.8296 129.392 42.5955C128.517 43.143 128.737 43.7981 127.423 43.9073C126.11 44.0164 125.675 43.5797 125.127 42.4863C124.363 40.9561 124.691 39.2107 125.127 37.7851C122.722 36.035 124.143 43.0338 122.395 43.7981C118.894 45.219 121.192 37.6743 119.223 38.8785" fill="#6DCDEA"/>
<path d="M119.004 39.2092C119.768 40.1934 119.877 42.1619 119.877 43.4736C119.768 45.7697 119.549 46.3171 120.752 48.284C121.844 49.9249 122.936 51.8934 123.266 53.8619C123.705 56.2671 122.721 56.7038 121.083 58.1263C122.065 58.9998 124.581 59.109 126.002 59.6565C127.862 60.4223 129.278 60.6407 131.36 60.5315C133.443 60.4223 135.406 59.7657 137.484 59.6565C139.452 59.5473 140.983 60.4223 140.437 58.0156C139.452 54.517 135.843 51.5643 133.985 48.5009C133.11 47.1875 132.781 45.6573 132.017 44.3456C131.688 43.6889 131.36 43.0338 130.704 42.4863C129.501 41.5021 130.267 41.8296 129.392 42.5955C128.517 43.143 128.737 43.7981 127.423 43.9073C126.11 44.0164 125.675 43.5797 125.127 42.4863C124.363 40.9561 124.691 39.2107 125.127 37.7851C122.722 36.035 124.143 43.0338 122.395 43.7981C118.894 45.219 121.192 37.6743 119.223 38.8785" stroke="#E5EFEB" stroke-width="0.25" stroke-miterlimit="10"/>
<path d="M96.8029 48.6132C98.1146 48.1032 99.2814 47.8115 100.74 48.6132C101.542 49.05 102.998 51.165 102.052 52.1118C101.687 52.5486 100.666 52.3302 100.156 52.1851C99.1348 51.9652 98.9164 51.7468 98.7713 50.8C98.698 49.925 99.2081 49.7784 98.2613 49.2683C97.7497 49.05 96.7296 49.8517 96.8762 48.4666" fill="#FBBA8C"/>
<path d="M96.8296 48.7036C98.3769 48.114 100.191 47.9019 101.375 49.3104C101.81 49.8298 102.267 50.5582 102.262 51.2648C102.262 52.4767 101.014 52.2943 100.182 52.0868C99.4141 51.8949 98.9571 51.6313 98.8791 50.7844C98.8479 50.4428 99.0273 50.0341 98.9072 49.705C98.8074 49.432 98.4393 49.1934 98.1663 49.1388C97.5736 49.0218 96.9029 49.5974 96.9731 48.4634C96.9731 48.3386 96.7859 48.3386 96.7781 48.4634C96.7469 48.9625 96.8062 49.3852 97.3755 49.3993C97.7561 49.3993 98.0337 49.2215 98.4049 49.4632C98.8869 49.7752 98.6654 50.1558 98.6654 50.6081C98.6654 51.2008 98.8573 51.792 99.411 52.0634C100.056 52.3652 100.766 52.5003 101.476 52.4565C103.128 52.2662 102.276 50.1792 101.679 49.3837C100.456 47.7537 98.5141 47.8566 96.7765 48.5164C96.6611 48.5617 96.711 48.7504 96.8296 48.7052V48.7036Z" fill="white"/>
<path d="M121.63 49.1013C123.773 51.5892 125.218 56.3825 121.526 58.2074C121.413 58.262 121.512 58.4305 121.624 58.3759C125.43 56.4916 123.99 51.544 121.767 48.9641C121.686 48.8689 121.549 49.0062 121.63 49.1013Z" fill="white"/>
<path d="M129.298 42.6204C129.998 45.8398 132.262 48.4743 134.302 50.9513C136.433 53.5358 138.981 56.3154 139.549 59.7438C139.569 59.867 139.757 59.814 139.736 59.6908C139.215 56.5166 136.982 53.9008 135.001 51.4941C132.817 48.83 130.242 46.0348 129.487 42.569C129.459 42.4457 129.272 42.4972 129.298 42.6204Z" fill="white"/>
<path d="M117.358 30.3824C117.72 29.8707 118.228 29.4811 118.817 29.2652C119.405 29.0494 120.045 29.0174 120.652 29.1735C120.774 29.2031 120.827 29.0175 120.704 28.9848C120.055 28.82 119.372 28.8561 118.744 29.0881C118.117 29.3201 117.575 29.7371 117.189 30.2841C117.116 30.3855 117.284 30.4837 117.358 30.3824Z" fill="white"/>
<path d="M106.499 33.1634C105.55 37.3 102.956 40.2371 100.704 39.7255C98.4516 39.2138 97.3972 35.4454 98.344 31.3104C99.2908 27.1754 101.886 24.2383 104.139 24.7499C106.391 25.2615 107.447 29.0284 106.499 33.1634Z" fill="#C2E8F4"/>
<path d="M106.77 33.2259C105.834 37.3328 103.097 40.2137 100.662 39.6569C98.227 39.1 97.0104 35.3207 97.9463 31.2122C98.8821 27.1037 101.618 24.2243 104.053 24.7812C106.488 25.338 107.707 29.1174 106.77 33.2259Z" stroke="#242424" stroke-width="2" stroke-miterlimit="10"/>
<path d="M80.082 29.1065C80.1506 30.8706 79.2288 36.6372 83.6258 34.5283C84.4353 35.0399 84.8736 36.11 85.4305 36.9054C86.5972 36.4515 88.9151 35.1366 88.4518 33.3866C88.3145 33.2555 86.984 32.8999 86.5582 32.1013C86.2743 31.5678 86.4943 30.4713 86.4724 29.9285C86.3664 27.2129 86.7236 26.2458 83.969 26.4969C81.871 26.7153 79.717 26.5422 80.082 29.1127" fill="#FBBA8C"/>
<path d="M81.8523 55.7227L80.1287 72.7946C80.1287 72.7946 79.3644 79.0556 84.011 91.2158H86.5707C86.5707 91.2158 83.9393 71.0711 84.7566 70.0728C85.574 69.0745 89.3845 53.9118 89.3845 53.9118L81.8523 55.7227Z" fill="#3777B0"/>
<path d="M86.1464 55.5199C86.1464 55.5199 91.1081 89.0383 91.381 89.5827C91.654 90.127 93.6115 89.5827 93.6115 89.5827L92.1968 54.7993L86.1464 55.5199Z" fill="#3777B0"/>
<path d="M81.3625 55.5495L92.2296 54.8975L92.4964 38.9144C92.4964 38.9144 92.6352 35.6809 89.3908 34.3192L83.8613 37.8428L81.3657 45.2986L81.3625 55.5495Z" fill="#6DCDEA" stroke="#A0C1B8" stroke-miterlimit="10"/>
<path d="M65.1407 36.6371H69.3085L74.1985 42.0901L72.478 43.8152V44.3596L70.7576 44.6295L65.1407 36.6371Z" fill="#5493C8" stroke="white" stroke-width="0.25" stroke-miterlimit="10"/>
<path d="M63.8368 37.8865L65.2297 36.6371L69.987 43.2834L69.2446 45.2815L63.8368 37.8865Z" fill="#5493C8" stroke="white" stroke-width="0.25" stroke-miterlimit="10"/>
<path d="M68.1169 42.1323C66.713 43.9916 70.5751 46.8117 72.3283 46.3312C73.8725 45.9881 72.96 44.2661 72.1177 43.5096C71.2052 42.6829 69.934 41.237 68.6066 41.4444C68.8172 41.5817 69.6595 42.1323 69.5191 42.6143C69.3085 43.3021 68.5364 42.2695 68.1855 42.1323" fill="#FBBA8C"/>
<path d="M69.3085 36.6371L71.9695 33.9434L77.134 40.2106C77.134 40.2106 74.7459 41.5458 73.8381 42.4536L69.3085 36.6371Z" fill="#5493C8" stroke="white" stroke-width="0.25" stroke-miterlimit="10"/>
<path d="M83.0659 47.7506L74.6758 44.9352L76.6084 43.2834L82.0505 44.9352L83.0659 47.7506Z" fill="#6DCDEA" stroke="#A0C1B8" stroke-miterlimit="10"/>
<path d="M88.0776 37.8568C88.0776 37.8568 93.7287 37.1721 91.6199 45.0521L88.5003 53.8728C88.5003 53.8728 87.8264 56.6118 83.2719 53.5733L72.0538 46.4248V44.2816L82.0739 48.6927C82.0739 48.6927 85.1264 50.7064 85.3807 45.7384C85.3791 45.74 84.6195 38.8847 88.0776 37.8568Z" fill="#6DCDEA" stroke="#E5EFEB" stroke-width="0.25" stroke-miterlimit="10"/>
<path d="M74.81 41.5442C77.3056 41.1121 77.2854 42.3631 77.0124 43.8152C76.5585 45.6293 74.8287 45.4483 73.9271 44.0866C74.2906 43.7232 74.9254 43.7232 75.4698 43.9057C75.3 43.209 75.3636 42.4758 75.6507 41.8187C75.1079 41.9996 74.5588 42.544 73.9349 42.3631C74.1112 42.0183 74.2796 41.5333 74.8178 41.5442" fill="#FBBA8C"/>
<path d="M74.81 41.5442C77.3056 41.1121 77.2854 42.3631 77.0124 43.8152C76.5585 45.6293 74.8287 45.4483 73.9271 44.0866C74.2906 43.7232 74.9254 43.7232 75.4698 43.9057C75.3 43.209 75.3636 42.4758 75.6507 41.8187C75.1079 41.9996 74.5588 42.544 73.9349 42.3631C74.1112 42.0183 74.2796 41.5333 74.8178 41.5442" stroke="white" stroke-width="0.25" stroke-miterlimit="10"/>
<path d="M84.4836 39.2201L89.3845 35.0461C89.3845 35.0461 90.6542 34.2288 89.3845 33.4115H89.0211L83.3387 37.5543L84.4836 39.2201Z" fill="#6DCDEA" stroke="#ECF8FD" stroke-width="0.5" stroke-miterlimit="10"/>
<path d="M79.8714 29.0924C81.2206 31.7253 83.7958 29.0924 85.5132 29.785C86.7392 30.2014 86.7392 32.2806 86.7392 33.9434C88.9463 33.6657 89.2801 31.4477 89.5249 29.6461C89.8931 27.2909 89.0695 25.9026 86.1262 25.2117C84.1639 24.6579 82.8147 25.6281 80.9788 26.1818C80.121 26.5967 80.0352 25.8356 79.5438 26.9446C79.1757 28.0536 79.6733 29.0659 80.6544 29.2047" fill="#1D3A6B"/>
<path d="M79.5406 29.2889C80.5108 31.0374 82.0472 30.7083 83.6959 30.2591C84.5007 30.0391 85.5068 29.827 85.9716 30.7192C86.4567 31.6551 86.3538 32.9279 86.3538 33.9433C86.355 34.003 86.3696 34.0617 86.3967 34.115C86.4238 34.1682 86.4625 34.2147 86.5101 34.2508C86.5577 34.287 86.6128 34.3119 86.6713 34.3238C86.7299 34.3356 86.7903 34.334 86.8482 34.3192C88.5515 34.0509 89.3532 32.6705 89.687 31.0982C89.9787 29.7256 90.2985 28.0645 89.5311 26.7901C88.7028 25.4159 86.7531 24.7624 85.2385 24.6672C84.2106 24.5986 83.242 24.9371 82.2968 25.2911C81.7992 25.4814 81.3016 25.6795 80.7916 25.8339C80.4968 25.9229 80.23 25.8527 79.943 25.926C79.2333 26.1054 79.0072 27.1738 79.0399 27.7884C79.052 28.2137 79.2086 28.6221 79.4839 28.9465C79.7592 29.2709 80.1368 29.4918 80.5545 29.5728C81.0442 29.6742 81.2533 28.9223 80.7619 28.821C80.5101 28.7849 80.2787 28.6619 80.1078 28.4734C79.937 28.2849 79.8373 28.0426 79.8261 27.7884C79.7933 27.4671 79.8869 26.8026 80.2176 26.6887C80.4094 26.6248 80.7042 26.6887 80.9195 26.6216C81.378 26.4969 81.8382 26.3003 82.2827 26.1303C83.1952 25.7825 84.1264 25.3894 85.1231 25.4315C86.124 25.4895 87.0959 25.7892 87.9557 26.305C89.3174 27.1504 89.3127 28.5464 89.1005 29.9783C88.865 31.5553 88.4766 33.2726 86.6486 33.5658L87.1415 33.9417C87.1415 32.4085 87.2974 29.7459 85.3352 29.3216C83.5633 28.9395 81.3999 31.0156 80.2207 28.8943C79.9774 28.4544 79.3035 28.8475 79.5484 29.2873L79.5406 29.2889Z" fill="#1D3A6B"/>
<path d="M44.2145 86.1106L45.8492 84.8129V83.264L43.4518 83.8879C43.4518 83.8879 43.8214 85.6037 44.2145 86.1106Z" fill="#153960"/>
<path d="M47.3294 41.0357C47.3294 41.0357 48.1983 39.164 53.0913 41.8016C53.0913 41.8016 55.9769 43.0494 54.2206 39.7926C54.2206 39.7926 52.3489 35.4033 47.3294 37.5356C47.3294 37.5356 45.205 39.5181 47.3294 41.0357Z" fill="#719FB0"/>
<path d="M140.217 84.1546C139.883 83.8551 139.805 83.2983 139.998 82.7991C140.265 81.8336 140.117 82.2563 141.079 82.0099C141.441 81.9178 141.73 82.2938 142.104 82.0099C142.391 81.8726 142.237 81.2705 142.357 81.2409C142.981 80.8899 143.094 80.8603 143.916 81.0366C145.008 81.2721 146.301 81.8383 146.217 83.0144C146.161 83.7943 145.125 85.0249 144.798 85.7502C144.33 86.8982 143.664 87.8357 143.112 88.9384C142.828 89.5873 142.269 92.4245 141.145 90.531C140.689 89.7511 141.477 87.5674 141.351 86.566C141.271 85.496 141.039 84.3355 140.056 83.7584" fill="#4E9DD6"/>
<path d="M107.815 87.2305C107.903 86.7922 108.341 86.4381 108.868 86.3492C109.834 86.0809 109.394 86.1714 110.1 86.8717C110.364 87.1354 110.189 87.5752 110.629 87.7499C110.894 87.9246 111.331 87.4832 111.42 87.5705C112.044 87.9199 112.125 88.0088 112.39 88.7981C112.746 89.8525 112.925 91.2579 111.872 91.7882C111.17 92.1423 109.589 91.8834 108.798 91.9738C107.567 92.1532 106.425 92.069 105.195 92.161C104.491 92.2515 101.763 93.2264 102.819 91.2891C103.256 90.4967 105.539 90.0506 106.329 89.4329C107.205 88.809 108.082 88.0291 108.079 86.878" fill="#4E9DD6"/>
<path d="M83.2062 90.595C83.2421 90.2503 83.5541 89.9477 83.9534 89.8416C84.6787 89.5686 84.3464 89.6684 84.9392 90.1535C85.1606 90.3376 85.0577 90.6886 85.4071 90.7915C85.6239 90.9069 85.9296 90.5373 86.0045 90.5981C86.5036 90.8243 86.5769 90.8851 86.839 91.4747C87.1853 92.2546 87.4239 93.3308 86.6502 93.8144C86.134 94.1357 84.897 94.0483 84.295 94.1747C83.3591 94.3993 82.4747 94.4149 81.5341 94.5724C80.9991 94.691 78.9714 95.6346 79.6421 94.0702C79.9229 93.4291 81.6511 92.9237 82.2142 92.3918C82.8459 91.8537 83.462 91.1814 83.3809 90.3017" fill="#009DB7"/>
<path d="M90.6262 88.7903C90.6621 88.4456 90.9741 88.143 91.3749 88.0369C92.0987 87.7624 91.7664 87.8638 92.3591 88.3489C92.5822 88.5329 92.4792 88.8823 92.8271 88.9868C93.0423 89.1023 93.3496 88.7326 93.4229 88.7934C93.9221 89.0196 93.9969 89.0804 94.2574 89.67C94.6052 90.4499 94.8439 91.5262 94.0687 92.0097C93.5539 92.3326 92.317 92.2452 91.715 92.37C90.7791 92.5962 89.8931 92.6118 88.9526 92.7693C88.4176 92.8879 86.3914 93.8316 87.0621 92.2655C87.3429 91.6245 89.0696 91.1191 89.6342 90.5887C90.2581 90.0506 90.882 89.3768 90.8009 88.4971" fill="#009DB7"/>
<path d="M25.8714 79.8089L37.6619 78.1836C37.6619 78.1836 44.0103 77.6814 44.2239 81.3188C44.2239 81.3188 44.4361 86.7141 38.1642 85.8422L26.4985 83.3325C26.4985 83.3325 21.7317 81.8148 25.8714 79.8089Z" fill="#143960" stroke="#153960" stroke-width="0.25" stroke-miterlimit="10"/>
<path d="M12.5742 79.8901H37.0349" stroke="#719FB0" stroke-width="4" stroke-miterlimit="10"/>
<path d="M51.6921 56.2967L58.9421 73.6805C58.9421 73.6805 61.1008 77.215 63.2611 77.6752" stroke="#153960" stroke-width="8" stroke-miterlimit="10"/>
<path d="M45.8398 51.9262L50.4662 56.6586C50.4662 56.6586 53.5265 59.9622 57.5445 59.6752C57.5445 59.6752 51.8372 55.3764 47.788 50.7719L45.8398 51.9262Z" fill="#FBBA8C" stroke="white" stroke-width="0.25" stroke-miterlimit="10"/>
<path d="M37.1144 53.851L44.564 59.0154C44.564 59.0154 47.0908 60.0308 47.2078 63.4172L40.5085 70.6312L41.864 63.4172L42.1603 62.2411L35.7652 56.1719C35.7652 56.1719 34.1243 55.4544 37.1144 53.851Z" fill="#0284A8"/>
<path d="M50.081 45.3127C48.7006 44.9368 47.3202 45.5638 46.0661 45.9366C44.4361 40.6676 52.2132 42.6751 50.5817 45.0584" fill="#FCF9CE"/>
<path d="M50.1839 44.9367C48.7067 44.6029 47.3591 45.1301 45.9631 45.5606L46.4419 45.8336C46.2282 45.1036 46.027 44.1178 46.5979 43.4939C47.0128 43.0462 47.6898 42.9589 48.2669 43.0072C49.0827 43.0774 50.9591 43.7356 50.24 44.8556C49.9671 45.2783 50.6424 45.6698 50.9123 45.2486C51.9917 43.5703 49.7596 42.3708 48.3683 42.2367C47.5478 42.1587 46.6385 42.324 46.0473 42.9433C45.2518 43.7746 45.3859 45.0209 45.6839 46.0332C45.7123 46.1325 45.7785 46.2168 45.8683 46.2678C45.9582 46.3188 46.0644 46.3326 46.1643 46.3062C47.4121 45.9209 48.649 45.3812 49.9702 45.6823C50.46 45.793 50.6674 45.0412 50.1776 44.9304L50.1839 44.9367Z" fill="#FCF9CE"/>
<path d="M47.0238 43.3349C47.1798 44.3971 47.7086 46.2205 48.4276 47.041C50.1605 48.9127 49.3635 47.5573 50.6597 47.1002C53.1366 45.8212 53.8339 43.8761 54.3486 41.0342C52.8137 40.9297 47.7241 41.3883 47.2235 43.1976" fill="#FBBA8C"/>
<path d="M33.1462 62.2473H54.3438" stroke="#153960" stroke-width="8" stroke-miterlimit="10"/>
<path d="M41.2556 76.9234L34.0244 62.8744" stroke="#153960" stroke-width="8" stroke-miterlimit="10"/>
<path d="M33.6283 61.3302L24.7546 80.2864" stroke="#153960" stroke-width="8" stroke-miterlimit="10"/>
<path d="M54.6574 63.2222L42.3022 78.1775" stroke="#153960" stroke-width="8" stroke-miterlimit="10"/>
<path d="M53.3035 58.9858C53.7262 56.4761 59.0233 57.7302 59.6597 59.4865C60.6127 62.4969 57.752 60.491 57.008 60.2399C55.6307 59.864 54.4656 60.2399 53.0883 59.3617" fill="#153960"/>
<path d="M53.3971 59.0108C53.9102 56.5463 58.8142 57.7333 59.5661 59.513C59.8141 60.1042 59.9638 61.1477 59.0467 61.0026C58.5787 60.9278 58.1311 60.672 57.7115 60.463C56.2515 59.733 54.57 60.1182 53.1397 59.2775C53.1177 59.2681 53.093 59.267 53.0702 59.2746C53.0475 59.2821 53.0283 59.2977 53.0162 59.3183C53.0041 59.339 53 59.3634 53.0047 59.3869C53.0093 59.4104 53.0224 59.4314 53.0414 59.446C53.9087 59.9545 54.7853 60.0558 55.7695 60.1432C56.4679 60.1961 57.1482 60.3903 57.7692 60.7141C58.2574 60.9543 59.3524 61.5938 59.8125 60.9948C60.3725 60.2664 59.6129 59.017 59.0155 58.5631C58.1186 57.8815 56.9082 57.5321 55.7929 57.4853C54.7011 57.4401 53.4532 57.7567 53.2083 58.964C53.1834 59.0872 53.3643 59.1387 53.3971 59.0155V59.0108Z" fill="#020202"/>
<path d="M40.1592 80.3098L40.6271 82.8194C40.6271 82.8194 43.154 83.8224 43.1665 82.8194C43.1789 81.8165 41.6613 78.5862 41.6613 78.5862L40.1592 80.3098Z" fill="#A0C1B8"/>
<path d="M41.9046 85.9265C41.9046 85.9265 44.7122 83.9471 46.456 84.0735C46.456 84.0735 47.9332 84.0875 48.3106 83.264C48.6881 82.4404 43.9229 81.6371 43.2226 82.0395C42.5222 82.4419 42.4427 83.3201 40.9094 82.8194C40.9094 82.8194 38.629 84.6428 41.9046 85.9265Z" fill="#719FB0"/>
<path d="M54.4796 61.1274C54.4796 61.1274 58.4711 60.3646 58.4711 62.2473C58.4711 62.2473 59.7548 63.7525 54.4796 65.0066C54.4796 65.0066 53.7403 66.2544 56.7475 65.0066C56.7475 65.0066 59.4694 63.8773 59.4694 62.8744C59.4694 62.8744 61.0432 59.343 54.1255 59.9107C54.1255 59.917 51.9122 60.5097 54.4796 61.1274Z" fill="#153960"/>
<path d="M26.6856 79.8901C26.6856 80.5358 26.096 81.0583 25.3692 81.0583C24.6423 81.0583 24.0511 80.5358 24.0511 79.8901C24.0511 79.2443 24.6407 78.7202 25.3692 78.7202C26.0976 78.7202 26.6856 79.2443 26.6856 79.8901Z" fill="#719FB0"/>
<path d="M35.8852 48.9501L44.2332 47.0612L47.3294 42.6938L35.8852 43.6874C35.8852 43.6874 34.6186 47.9472 35.8852 48.9501Z" fill="#A0C1B8"/>
<path d="M47.0674 38.7896C46.0629 38.5385 44.4329 38.2873 43.4284 38.5385C41.6721 39.0407 41.4225 40.7971 40.0421 41.5489C38.6617 42.3007 37.0317 41.6752 35.9024 42.427C34.2725 43.3052 34.0213 45.1863 32.1387 46.0645C30.1328 46.9426 29.0035 46.8178 28.5012 49.326C28.3764 49.7035 28.0005 50.8312 28.2501 51.3334C29.1283 52.3364 29.3794 50.7095 29.7569 50.2042C31.638 48.4478 32.265 48.8253 34.5236 48.4478C36.6558 48.0719 36.9054 46.5667 38.5369 45.5638C41.0451 43.9322 44.3082 45.6886 47.0674 44.9399C48.5726 44.5624 49.5756 43.5594 50.956 42.9324C51.9589 42.3085 53.213 42.0542 54.3423 41.552C52.0837 40.3042 48.6974 38.2905 45.9381 38.4168" fill="#1D3A6B"/>
<path d="M47.1703 38.409C45.4062 37.9848 43.2896 37.6385 41.867 39.0329C41.2338 39.6568 40.8423 40.5007 40.1232 41.031C39.1639 41.7361 37.9395 41.499 36.8383 41.6846C34.8106 42.0137 34.2178 43.8917 32.8639 45.1161C31.7003 46.169 29.8333 46.1066 28.8537 47.4028C28.3608 48.0516 28.2189 48.8596 27.9974 49.6239C27.8149 50.2478 27.5638 51.1385 28.0442 51.6813C28.4294 52.1165 29.0034 52.1492 29.3903 51.7172C29.6071 51.4723 29.7163 51.1525 29.8504 50.8624C30.0672 50.3945 30.4338 50.0825 30.8565 49.7877C32.3055 48.7567 34.1164 49.2246 35.6716 48.4962C36.4062 48.1515 36.935 47.5775 37.4778 46.9941C38.2296 46.1877 39.0719 45.5451 40.1778 45.3282C42.6251 44.8494 45.1021 46.0083 47.5338 45.205C48.6911 44.8213 49.6395 44.0539 50.7033 43.4893C51.9417 42.8295 53.252 42.4364 54.5372 41.8873C54.8118 41.7704 54.7712 41.3445 54.5372 41.2135C51.9324 39.7598 49.0343 37.9411 45.9381 38.0237C45.4374 38.0362 45.4343 38.8161 45.9381 38.8036C48.8908 38.7288 51.6563 40.5007 54.1457 41.8858V41.2166C53.1787 41.63 52.143 41.8749 51.2024 42.3491C50.2618 42.8232 49.3743 43.4159 48.4494 43.94C46.4372 45.0787 44.4017 44.6497 42.218 44.4938C40.3572 44.3612 38.6804 44.7121 37.3125 46.0536C36.8242 46.5309 36.4109 47.0986 35.8556 47.5026C35.0476 48.0891 34.0478 48.1468 33.0901 48.256C31.7362 48.412 30.2825 48.8705 29.4199 50.0185C29.2437 50.251 28.8818 51.5549 28.5761 51.1026C28.2969 50.6893 28.9426 49.0328 29.1033 48.5945C29.6383 47.1423 31.0982 47.0081 32.3367 46.4107C33.9589 45.6308 34.4721 43.8277 35.9164 42.8794C36.9069 42.2289 38.0892 42.4801 39.192 42.2555C40.1279 42.073 40.8282 41.5582 41.4147 40.8251C42.0012 40.092 42.5331 39.1889 43.5282 38.9175C44.6029 38.6258 45.9038 38.9175 46.9598 39.1686C47.448 39.2856 47.6554 38.5338 47.1672 38.4168L47.1703 38.409Z" fill="#1D3A6B"/>
<path d="M30.8877 49.7955C30.8877 49.7955 25.5672 55.7492 31.939 61.6218C31.939 61.6218 38.0721 65.6196 38.8707 70.2771L40.1186 80.8837L42.2914 80.6794C42.2914 80.6794 46.1908 63.0069 38.1641 57.6725L34.3068 50.7064L30.8877 49.7955Z" fill="#0284A8"/>
<path d="M25.3676 67.8922V92.1017" stroke="#719FB0" stroke-miterlimit="10"/>
<path d="M16.2007 70.965L34.2444 89.0087" stroke="#719FB0" stroke-miterlimit="10"/>
<path d="M16.5298 89.1257L34.2069 71.4486" stroke="#719FB0" stroke-miterlimit="10"/>
<path d="M51.0293 77.5629H75.49" stroke="#719FB0" stroke-miterlimit="10"/>
<path d="M65.1423 77.5598C65.1423 78.2056 64.5527 78.7297 63.8243 78.7297C63.0959 78.7297 62.5078 78.2056 62.5078 77.5598C62.5078 76.914 63.0974 76.3915 63.8243 76.3915C64.5511 76.3915 65.1423 76.9156 65.1423 77.5598Z" fill="#719FB0"/>
<path d="M63.8242 65.5635V89.7745" stroke="#719FB0" stroke-miterlimit="10"/>
<path d="M54.6573 68.6378L72.701 86.6815" stroke="#719FB0" stroke-miterlimit="10"/>
<path d="M54.6573 86.499L72.3345 68.8203" stroke="#719FB0" stroke-miterlimit="10"/>
<path d="M76.0546 77.6752C76.0546 80.2049 75.3045 82.6778 73.8991 84.7811C72.4936 86.8845 70.4961 88.5239 68.1589 89.4919C65.8218 90.46 63.2501 90.7133 60.769 90.2198C58.288 89.7263 56.009 88.5081 54.2202 86.7193C52.4314 84.9306 51.2133 82.6516 50.7198 80.1705C50.2263 77.6894 50.4795 75.1177 51.4476 72.7806C52.4157 70.4435 54.055 68.4459 56.1584 67.0405C58.2618 65.6351 60.7346 64.8849 63.2643 64.8849C66.6565 64.8849 69.9098 66.2325 72.3084 68.6311C74.7071 71.0298 76.0546 74.283 76.0546 77.6752Z" stroke="#726A95" stroke-miterlimit="10"/>
<path d="M38.0673 81.4427C38.9285 74.4289 33.9408 68.045 26.927 67.1838C19.9132 66.3226 13.5293 71.3103 12.6681 78.3241C11.8069 85.3379 16.7946 91.7218 23.8084 92.583C30.8222 93.4442 37.2061 88.4565 38.0673 81.4427Z" stroke="#726A95" stroke-miterlimit="10"/>
<path d="M38.0673 81.4427C38.9285 74.4289 33.9408 68.045 26.927 67.1838C19.9132 66.3226 13.5293 71.3103 12.6681 78.3241C11.8069 85.3379 16.7946 91.7218 23.8084 92.583C30.8222 93.4442 37.2061 88.4565 38.0673 81.4427Z" stroke="#FEFEFF" stroke-width="0.5" stroke-miterlimit="10"/>
<path d="M76.0546 77.5598C76.0546 80.0895 75.3045 82.5624 73.8991 84.6657C72.4936 86.7691 70.4961 88.4084 68.1589 89.3765C65.8218 90.3446 63.2501 90.5979 60.769 90.1044C58.288 89.6108 56.009 88.3927 54.2202 86.6039C52.4314 84.8152 51.2133 82.5362 50.7198 80.0551C50.2263 77.574 50.4795 75.0023 51.4476 72.6652C52.4157 70.328 54.055 68.3305 56.1584 66.9251C58.2618 65.5196 60.7346 64.7695 63.2643 64.7695C66.6565 64.7695 69.9098 66.1171 72.3084 68.5157C74.7071 70.9143 76.0546 74.1676 76.0546 77.5598Z" stroke="#00263F" stroke-miterlimit="10"/>
<path d="M35.8744 53.5296C35.8744 53.5296 44.5203 63.1831 43.1883 70.6374" stroke="#FEFEFF" stroke-width="0.25" stroke-miterlimit="10"/>
<path d="M30.3168 49.9297C30.3168 49.9297 30.2326 54.1973 37.2361 54.1848L44.1537 51.1994L45.3205 52.7014L46.3858 52.0775L48.2576 51.7422C48.2576 51.7422 46.3858 35.3675 30.3168 49.9297Z" fill="#009DB7"/>
<path d="M116.459 33.374C115.438 35.4143 116.313 36.216 116.533 38.2578C116.604 39.2779 115.949 40.2262 116.094 41.2463C116.239 42.2664 117.114 42.9964 117.333 43.9432C117.553 44.7449 117.406 45.5467 117.479 46.35C117.553 47.5151 117.844 47.7335 118.428 48.6818C119.23 49.9203 119.813 53.0493 121.703 50.4319C122.723 49.1186 121.703 46.86 120.973 45.5467C119.882 43.6515 120.755 42.1151 120.537 40.1529C120.463 39.3512 120.318 38.6945 120.245 37.8928C120.172 36.6543 119.662 36.5077 119.225 35.4876C119.005 34.9042 119.443 33.8108 119.152 33.374C118.713 32.6441 117.328 32.7174 116.746 33.0824C116.52 33.2199 116.342 33.4235 116.235 33.6657" fill="#1D3A6B"/>
<path d="M116.123 33.1759C115.784 33.8934 115.544 34.6249 115.594 35.4267C115.641 36.1645 115.895 36.8679 116.037 37.5885C116.247 38.6648 115.862 39.4603 115.725 40.4929C115.613 41.3227 115.873 42.0137 116.293 42.7203C116.548 43.1523 116.828 43.5548 116.96 44.0476C117.116 44.6045 117.062 45.1785 117.069 45.7478C117.08 46.4747 117.127 47.2093 117.466 47.8676C117.753 48.4244 118.146 48.9173 118.419 49.4835C118.662 49.9858 118.862 50.5145 119.167 50.9825C119.684 51.7717 120.457 52.1118 121.268 51.4879C122.516 50.5333 122.721 49.0983 122.32 47.6617C122.094 46.9168 121.789 46.1983 121.41 45.5185C120.936 44.6383 120.738 43.6353 120.843 42.6407C120.916 41.7048 121.013 40.8033 120.903 39.858C120.8 38.9502 120.769 37.9598 120.515 37.0816C120.275 36.2549 119.512 35.6856 119.579 34.7778C119.618 34.1539 119.815 33.4863 119.35 32.97C118.451 31.9717 116.513 32.357 115.918 33.4676C115.68 33.9106 116.353 34.3052 116.591 33.8622C116.921 33.2476 117.709 33.0823 118.35 33.2632C119.13 33.4894 118.818 34.2631 118.796 34.8745C118.777 35.4142 118.938 35.8104 119.214 36.2783C119.595 36.8509 119.831 37.507 119.904 38.1906C119.994 38.9346 120.145 39.674 120.189 40.4211C120.233 41.1683 120.131 41.9029 120.074 42.6438C120.008 43.2736 120.04 43.9097 120.169 44.5296C120.325 45.1988 120.685 45.7665 120.986 46.3764C121.632 47.6851 122.234 49.3104 121.142 50.5442C120.86 50.8639 120.518 51.2258 120.114 50.917C119.79 50.669 119.596 50.1496 119.428 49.7955C119.247 49.4133 119.086 49.0156 118.877 48.6537C118.6 48.1671 118.21 47.7178 118.029 47.1875C117.774 46.4388 117.899 45.6277 117.86 44.8478C117.84 44.1728 117.661 43.5121 117.336 42.9199C116.901 42.14 116.377 41.5052 116.517 40.5459C116.631 39.7754 116.985 39.0532 116.937 38.2593C116.892 37.5262 116.656 36.8149 116.499 36.1036C116.3 35.2494 116.411 34.3526 116.81 33.5721C117.023 33.1197 116.343 32.7236 116.137 33.1775L116.123 33.1759Z" fill="#1D3A6B"/>
<path d="M122.499 32.3539C122.499 32.3539 122.608 28.4747 119 29.1953C119 29.1953 114.407 29.4777 115.5 34.2881C115.5 34.2881 117.255 35.2239 119.983 34.2881C122.711 33.3522 122.499 32.3539 122.499 32.3539Z" fill="#719FB0"/>
<path d="M76.0718 77.5598C76.0718 80.0895 75.3217 82.5624 73.9163 84.6657C72.5108 86.7691 70.5133 88.4084 68.1762 89.3765C65.839 90.3446 63.2673 90.5979 60.7863 90.1044C58.3052 89.6108 56.0262 88.3927 54.2374 86.6039C52.4487 84.8152 51.2305 82.5362 50.737 80.0551C50.2435 77.574 50.4968 75.0023 51.4648 72.6652C52.4329 70.328 54.0723 68.3305 56.1756 66.9251C58.279 65.5196 60.7518 64.7695 63.2815 64.7695C66.6737 64.7695 69.927 66.1171 72.3256 68.5157C74.7243 70.9143 76.0718 74.1676 76.0718 77.5598V77.5598Z" stroke="#006F9C" stroke-width="2" stroke-miterlimit="10"/>
<path d="M38.0097 80.0555C38.0097 82.5852 37.2595 85.058 35.8541 87.1614C34.4487 89.2647 32.4511 90.9041 30.114 91.8722C27.7769 92.8402 25.2052 93.0935 22.7241 92.6C20.243 92.1065 17.964 90.8883 16.1753 89.0996C14.3865 87.3108 13.1684 85.0318 12.6748 82.5507C12.1813 80.0697 12.4346 77.498 13.4027 75.1608C14.3708 72.8237 16.0101 70.8261 18.1135 69.4207C20.2168 68.0153 22.6897 67.2652 25.2194 67.2652C28.6116 67.2652 31.8648 68.6127 34.2635 71.0114C36.6621 73.41 38.0097 76.6633 38.0097 80.0555Z" stroke="#726A95" stroke-width="2" stroke-miterlimit="10"/>
<path d="M38.0097 79.9401C38.0097 82.4697 37.2595 84.9426 35.8541 87.046C34.4487 89.1493 32.4511 90.7887 30.114 91.7568C27.7769 92.7248 25.2052 92.9781 22.7241 92.4846C20.243 91.9911 17.964 90.7729 16.1753 88.9842C14.3865 87.1954 13.1684 84.9164 12.6748 82.4353C12.1813 79.9542 12.4346 77.3825 13.4027 75.0454C14.3708 72.7083 16.0101 70.7107 18.1135 69.3053C20.2168 67.8999 22.6897 67.1497 25.2194 67.1497C28.6116 67.1497 31.8648 68.4973 34.2635 70.8959C36.6621 73.2946 38.0097 76.5479 38.0097 79.9401Z" stroke="#00263F" stroke-width="2" stroke-miterlimit="10"/>
<path d="M38.0269 79.9401C38.0269 82.4697 37.2768 84.9426 35.8713 87.046C34.4659 89.1493 32.4684 90.7887 30.1312 91.7568C27.7941 92.7248 25.2224 92.9781 22.7413 92.4846C20.2603 91.9911 17.9812 90.7729 16.1925 88.9842C14.4037 87.1954 13.1856 84.9164 12.6921 82.4353C12.1985 79.9542 12.4518 77.3825 13.4199 75.0454C14.388 72.7083 16.0273 70.7107 18.1307 69.3053C20.234 67.8999 22.7069 67.1497 25.2366 67.1497C28.6288 67.1497 31.8821 68.4973 34.2807 70.8959C36.6794 73.2946 38.0269 76.5479 38.0269 79.9401Z" stroke="white" stroke-width="2" stroke-miterlimit="10"/>
<path d="M38.1641 79.8885C38.1641 82.4182 37.414 84.891 36.0086 86.9944C34.6031 89.0977 32.6056 90.7371 30.2684 91.7052C27.9313 92.6732 25.3596 92.9265 22.8785 92.433C20.3975 91.9395 18.1185 90.7213 16.3297 88.9326C14.5409 87.1438 13.3228 84.8648 12.8293 82.3838C12.3357 79.9027 12.589 77.331 13.5571 74.9939C14.5252 72.6567 16.1645 70.6592 18.2679 69.2538C20.3713 67.8483 22.8441 67.0982 25.3738 67.0982C27.0535 67.0982 28.7167 67.429 30.2684 68.0718C31.8202 68.7146 33.2302 69.6567 34.4179 70.8444C35.6056 72.0321 36.5477 73.4421 37.1905 74.9939C37.8333 76.5457 38.1641 78.2088 38.1641 79.8885Z" stroke="#006F9C" stroke-width="2" stroke-miterlimit="10"/>
</svg>
