<svg width="81" height="100" viewBox="0 0 81 100" fill="none" xmlns="http://www.w3.org/2000/svg">
<path d="M60.0456 2.39512C58.7407 3.27906 57.3191 4.8795 56.7188 7.76278C55.4771 13.7178 54.5811 25.2075 52.2557 29.2156C49.9274 33.224 48.1784 39.7862 30.1339 50.947C12.0922 62.1048 7.55664 81.9444 9.36983 92.9847L10.0846 94.2823C8.48003 92.3096 7.34569 89.8454 7.07222 87.1296C6.7157 83.5907 6.48835 79.3837 9.05682 69.7949C10.29 65.1898 14.1468 58.3714 20.8196 52.1123C31.7583 41.8574 50.4829 37.9651 50.1625 20.3354C49.8833 5.00032 55.3006 2.81026 60.0456 2.39512Z" fill="#0CB5BB"/>
<path d="M67.1396 3.18986C68.187 4.81711 69.9223 9.16801 69.332 18.283C68.6422 28.9104 62.5959 41.1322 54.0102 47.6607C45.4239 54.1865 24.2358 66.4666 22.5867 84.6439C21.5131 96.4664 19.7327 98.8183 18.6155 99.0126C18.4632 99.0067 18.3077 98.9954 18.155 98.9815C18.1547 98.9785 18.152 98.9817 18.152 98.9817C17.8167 98.8673 17.6086 98.6044 17.6086 98.6044L14.265 97.7544C12.717 96.9324 11.2721 95.7428 10.0846 94.2823L9.36985 92.9847C7.55666 81.9444 12.0922 62.1051 30.1339 50.947C48.1785 39.7862 49.9274 33.224 52.2558 29.2156C54.5811 25.2075 55.4771 13.7178 56.7188 7.76278C57.3191 4.87951 58.7407 3.27906 60.0456 2.39513C60.7551 2.33306 61.4509 2.31082 62.1087 2.28914C63.7318 2.23818 65.4877 2.50392 67.1396 3.18986Z" fill="#0CB5BB"/>
<path d="M62.7701 47.4103C54.1598 55.3012 28.9243 68.4982 27.6638 87.3919C27.0885 96.0173 23.0041 99.2219 18.6155 99.0127C19.7325 98.8184 21.5132 96.4664 22.5868 84.6439C24.2356 66.4667 45.4237 54.1866 54.01 47.6608C62.5958 41.1322 68.642 28.9105 69.3321 18.2831C69.9224 9.16804 68.187 4.81713 67.1394 3.18991C70.6355 4.64431 73.6622 7.98831 73.9534 14.2148C74.3802 23.3815 71.3776 39.5196 62.7701 47.4103Z" fill="#0CB5BB"/>
<path d="M28.2139 4.81311C35.2896 6.53372 40.8033 12.6013 41.473 20.2569C42.1287 27.751 37.948 34.5535 31.5139 37.5802C34.9284 30.2515 34.6577 25.0441 34.2359 20.7907C33.1306 9.6389 30.0734 6.01062 28.2139 4.81311Z" fill="#0CB5BB"/>
<path d="M34.2361 20.7908C34.6579 25.0441 34.9286 30.2516 31.514 37.5803C29.704 38.4312 27.7134 38.9833 25.6051 39.1678C23.9103 39.316 22.2488 39.2158 20.6596 38.8996C18.4859 37.4537 12.5389 32.5194 11.477 23.1572C10.2395 12.2293 18.8095 5.23313 18.8095 5.23313L18.7824 5.14446C19.9849 4.76059 21.2508 4.5036 22.5624 4.38886C24.5119 4.2183 26.4127 4.3748 28.2141 4.81315C30.0736 6.01066 33.1307 9.63894 34.2361 20.7908Z" fill="#0CB5BB"/>
<path d="M18.7822 5.14438L18.8093 5.23306C18.8093 5.23306 10.2394 12.2293 11.4768 23.1571C12.5387 32.5193 18.4857 37.4536 20.6594 38.8996C13.249 37.4207 7.38595 31.2071 6.69413 23.2996C5.96853 15.006 11.1665 7.56265 18.7822 5.14438Z" fill="#0CB5BB"/>
<path d="M28.214 4.8131C35.2897 6.53371 40.8033 12.6013 41.4731 20.2569C42.1287 27.751 37.948 34.5535 31.5139 37.5802C29.7039 38.4311 27.7133 38.9833 25.605 39.1677C23.9102 39.316 22.2487 39.2158 20.6595 38.8996C13.249 37.4207 7.38602 31.2072 6.6942 23.2996C5.9686 15.006 11.1665 7.56268 18.7823 5.14441C19.9848 4.76054 21.2507 4.50356 22.5623 4.38881C24.5118 4.21825 26.4126 4.37475 28.214 4.8131Z" fill="#0CB5BB"/>
<path d="M18.1553 98.9814C18.3083 98.9956 18.4638 99.0065 18.6161 99.0128C23.0046 99.2217 27.0891 96.0174 27.6643 87.392C28.9248 68.4983 54.1603 55.3013 62.7706 47.4101C71.3781 39.5195 74.3807 23.3814 73.9539 14.2146C73.663 7.98811 70.636 4.6444 67.14 3.18973C65.4883 2.50405 63.7324 2.2383 62.109 2.28901C61.4515 2.31094 60.7554 2.33294 60.046 2.39501C55.3009 2.81014 49.8837 5.00048 50.1631 20.3355C50.4833 37.9652 31.759 41.8575 20.82 52.1125C14.1472 58.3713 10.2906 65.1896 9.05743 69.7947C6.48897 79.3839 6.71632 83.5908 7.07282 87.1295C7.34631 89.8455 8.48063 92.3094 10.0852 94.2822C11.2724 95.7427 12.7174 96.9326 14.2654 97.7543C15.5212 98.4227 16.8441 98.8478 18.1526 98.9816" fill="#0CB5BB"/>
<path d="M18.152 98.9816C18.152 98.9816 18.1556 98.9768 18.156 98.9813L18.152 98.9816Z" fill="#0CB5BB"/>
</svg>
