<svg width="40" height="40" viewBox="0 0 40 40" fill="none" xmlns="http://www.w3.org/2000/svg">
<circle cx="20" cy="20" r="19.5" stroke="#7280FF"/>
<path d="M19.7158 24.7158C20.8158 24.7158 21.7158 23.8158 21.7158 22.7158C21.7158 21.6158 20.8158 20.7158 19.7158 20.7158C18.6158 20.7158 17.7158 21.6158 17.7158 22.7158C17.7158 23.8158 18.6158 24.7158 19.7158 24.7158ZM25.7158 15.7158H24.7158V13.7158C24.7158 10.9558 22.4758 8.71582 19.7158 8.71582C16.9558 8.71582 14.7158 10.9558 14.7158 13.7158H16.6158C16.6158 12.0058 18.0058 10.6158 19.7158 10.6158C21.4258 10.6158 22.8158 12.0058 22.8158 13.7158V15.7158H13.7158C12.6158 15.7158 11.7158 16.6158 11.7158 17.7158V27.7158C11.7158 28.8158 12.6158 29.7158 13.7158 29.7158H25.7158C26.8158 29.7158 27.7158 28.8158 27.7158 27.7158V17.7158C27.7158 16.6158 26.8158 15.7158 25.7158 15.7158ZM25.7158 27.7158H13.7158V17.7158H25.7158V27.7158Z" fill="#7280FF"/>
</svg>
