<svg width="24" height="18" viewBox="0 0 24 18" fill="none" xmlns="http://www.w3.org/2000/svg">
<path d="M23.648 12.0629C23.1766 11.5916 22.4144 11.5916 21.9461 12.0629L20.6162 13.3928V3.96248C20.6162 1.77815 18.8391 0.001003 16.6547 0.001003H11.4396C10.7747 0.001003 10.2361 0.540565 10.2361 1.20449C10.2361 1.86841 10.7747 2.40797 11.4396 2.40797H16.6547C17.5112 2.40797 18.2092 3.10499 18.2092 3.96248V13.3928L16.8794 12.0629C16.408 11.5916 15.6458 11.5916 15.1775 12.0629C14.7091 12.5343 14.7061 13.2965 15.1775 13.7649L18.5613 17.1497C18.7959 17.3833 19.1048 17.5007 19.4137 17.5007C19.7226 17.5007 20.0285 17.3843 20.2642 17.1497L23.649 13.7639C24.1173 13.2925 24.1173 12.5303 23.647 12.0619L23.648 12.0629ZM12.5629 15.0947H7.34778C6.4913 15.0947 5.79328 14.3977 5.79328 13.5402V4.1099L7.12313 5.43975C7.35781 5.67544 7.6667 5.79278 7.97359 5.79278C8.28048 5.79278 8.58937 5.67544 8.82606 5.43975C9.29542 4.96839 9.29542 4.20618 8.82606 3.73782L5.44025 0.352019C4.96889 -0.11734 4.20668 -0.11734 3.73833 0.352019L0.353524 3.73883C-0.117841 4.21019 -0.117841 4.9724 0.353524 5.44076C0.824889 5.90911 1.5871 5.91212 2.05545 5.44076L3.3843 4.1099V13.5402C3.3843 15.7245 5.16245 17.5017 7.34577 17.5017H12.5609C13.2268 17.5017 13.7644 16.9621 13.7644 16.2982C13.7644 15.6343 13.2278 15.0947 12.5629 15.0947Z" fill="#A7A7A7"/>
</svg>
