<svg width="81" height="100" viewBox="0 0 81 100" fill="none" xmlns="http://www.w3.org/2000/svg">
<path d="M60.0455 2.39515C58.7406 3.27909 57.319 4.87953 56.7187 7.76281C55.477 13.7178 54.5809 25.2075 52.2556 29.2157C49.9273 33.224 48.1783 39.7863 30.1338 50.9471C12.092 62.1048 7.55652 81.9445 9.36971 92.9847L10.0844 94.2824C8.4799 92.3096 7.34556 89.8454 7.0721 87.1297C6.71557 83.5907 6.48822 79.3837 9.0567 69.7949C10.2899 65.1898 14.1467 58.3714 20.8195 52.1123C31.7582 41.8574 50.4828 37.9651 50.1624 20.3354C49.8832 5.00035 55.3004 2.81029 60.0455 2.39515Z" fill="#FD8F6E"/>
<path d="M67.1395 3.18986C68.1868 4.81711 69.9222 9.16801 69.3318 18.283C68.6421 28.9104 62.5958 41.1322 54.0101 47.6607C45.4238 54.1865 24.2356 66.4666 22.5866 84.6439C21.513 96.4664 19.7326 98.8183 18.6153 99.0126C18.4631 99.0067 18.3076 98.9954 18.1549 98.9815C18.1546 98.9785 18.1519 98.9817 18.1519 98.9817C17.8166 98.8673 17.6084 98.6044 17.6084 98.6044L14.2649 97.7544C12.7169 96.9324 11.272 95.7428 10.0844 94.2823L9.36973 92.9847C7.55654 81.9444 12.0921 62.1051 30.1338 50.947C48.1783 39.7862 49.9273 33.224 52.2556 29.2156C54.5809 25.2075 55.477 13.7178 56.7187 7.76278C57.319 4.87951 58.7406 3.27906 60.0455 2.39513C60.7549 2.33306 61.4508 2.31082 62.1085 2.28914C63.7316 2.23818 65.4875 2.50392 67.1395 3.18986Z" fill="#FD8F6E"/>
<path d="M62.7701 47.4103C54.1598 55.3012 28.9243 68.4982 27.6638 87.3919C27.0885 96.0173 23.0041 99.2219 18.6155 99.0127C19.7325 98.8184 21.5132 96.4664 22.5868 84.6439C24.2356 66.4667 45.4237 54.1866 54.01 47.6608C62.5958 41.1322 68.642 28.9105 69.3321 18.2831C69.9224 9.16804 68.187 4.81713 67.1394 3.18991C70.6355 4.64431 73.6622 7.98831 73.9534 14.2148C74.3802 23.3815 71.3776 39.5196 62.7701 47.4103Z" fill="#FD8F6E"/>
<path d="M28.2139 4.81311C35.2896 6.53372 40.8033 12.6013 41.473 20.2569C42.1287 27.751 37.948 34.5535 31.5139 37.5802C34.9284 30.2515 34.6577 25.0441 34.2359 20.7907C33.1306 9.6389 30.0734 6.01062 28.2139 4.81311Z" fill="#FD8F6E"/>
<path d="M34.236 20.7908C34.6577 25.0442 34.9285 30.2516 31.5139 37.5803C29.7039 38.4312 27.7133 38.9833 25.605 39.1678C23.9101 39.3161 22.2487 39.2159 20.6594 38.8997C18.4857 37.4537 12.5388 32.5195 11.4769 23.1572C10.2394 12.2294 18.8093 5.23316 18.8093 5.23316L18.7823 5.14449C19.9847 4.76062 21.2507 4.50363 22.5622 4.38889C24.5117 4.21833 26.4126 4.37483 28.214 4.81318C30.0735 6.01069 33.1306 9.63897 34.236 20.7908Z" fill="#FD8F6E"/>
<path d="M18.7823 5.14438L18.8094 5.23306C18.8094 5.23306 10.2395 12.2293 11.477 23.1571C12.5388 32.5193 18.4858 37.4536 20.6595 38.8996C13.2491 37.4207 7.38607 31.2071 6.69425 23.2996C5.96866 15.006 11.1666 7.56265 18.7823 5.14438Z" fill="#FD8F6E"/>
<path d="M28.214 4.8131C35.2897 6.53371 40.8033 12.6013 41.4731 20.2569C42.1287 27.751 37.948 34.5535 31.5139 37.5802C29.7039 38.4311 27.7133 38.9833 25.605 39.1677C23.9102 39.316 22.2487 39.2158 20.6595 38.8996C13.249 37.4207 7.38602 31.2072 6.6942 23.2996C5.9686 15.006 11.1665 7.56268 18.7823 5.14441C19.9848 4.76054 21.2507 4.50356 22.5623 4.38881C24.5118 4.21825 26.4126 4.37475 28.214 4.8131Z" fill="#FD8F6E"/>
<path d="M18.1554 98.9814C18.3084 98.9956 18.4639 99.0065 18.6162 99.0128C23.0048 99.2217 27.0892 96.0174 27.6644 87.392C28.925 68.4983 54.1604 55.3013 62.7707 47.4101C71.3783 39.5195 74.3808 23.3814 73.954 14.2146C73.6631 7.98811 70.6361 4.6444 67.1401 3.18973C65.4884 2.50405 63.7325 2.2383 62.1091 2.28901C61.4516 2.31094 60.7555 2.33294 60.0461 2.39501C55.301 2.81014 49.8838 5.00048 50.1632 20.3355C50.4834 37.9652 31.7591 41.8575 20.8201 52.1125C14.1473 58.3713 10.2908 65.1896 9.05755 69.7947C6.4891 79.3839 6.71644 83.5908 7.07294 87.1295C7.34644 89.8455 8.48075 92.3094 10.0853 94.2822C11.2725 95.7427 12.7175 96.9326 14.2655 97.7543C15.5214 98.4227 16.8443 98.8478 18.1527 98.9816" fill="#FD8F6E"/>
<path d="M18.1521 98.9816C18.1521 98.9816 18.1557 98.9768 18.1561 98.9813L18.1521 98.9816Z" fill="#FD8F6E"/>
</svg>
