<svg width="60" height="69" viewBox="0 0 60 69" fill="none" xmlns="http://www.w3.org/2000/svg">
<circle cx="30" cy="30" r="30" fill="#7280FF"/>
<path d="M26.46 33.9C27.74 32.7933 28.7467 31.8867 29.48 31.18C30.2267 30.46 30.8467 29.7133 31.34 28.94C31.8333 28.1667 32.08 27.3933 32.08 26.62C32.08 25.82 31.8867 25.1933 31.5 24.74C31.1267 24.2867 30.5333 24.06 29.72 24.06C28.9333 24.06 28.32 24.3133 27.88 24.82C27.4533 25.3133 27.2267 25.98 27.2 26.82H25C25.04 25.3 25.4933 24.14 26.36 23.34C27.24 22.5267 28.3533 22.12 29.7 22.12C31.1533 22.12 32.2867 22.52 33.1 23.32C33.9267 24.12 34.34 25.1867 34.34 26.52C34.34 27.48 34.0933 28.4067 33.6 29.3C33.12 30.18 32.54 30.9733 31.86 31.68C31.1933 32.3733 30.34 33.18 29.3 34.1L28.4 34.9H34.74V36.8H25.02V35.14L26.46 33.9Z" fill="white"/>
<path d="M21.258 64.042C21.258 64.39 21.138 64.68 20.898 64.912C20.662 65.14 20.3 65.254 19.812 65.254H19.008V67H18.462V62.818H19.812C20.284 62.818 20.642 62.932 20.886 63.16C21.134 63.388 21.258 63.682 21.258 64.042ZM19.812 64.804C20.116 64.804 20.34 64.738 20.484 64.606C20.628 64.474 20.7 64.286 20.7 64.042C20.7 63.526 20.404 63.268 19.812 63.268H19.008V64.804H19.812ZM22.4826 62.56V67H21.9366V62.56H22.4826ZM23.2092 65.344C23.2092 65.008 23.2772 64.714 23.4132 64.462C23.5492 64.206 23.7352 64.008 23.9712 63.868C24.2112 63.728 24.4772 63.658 24.7692 63.658C25.0572 63.658 25.3072 63.72 25.5192 63.844C25.7312 63.968 25.8892 64.124 25.9932 64.312V63.712H26.5452V67H25.9932V66.388C25.8852 66.58 25.7232 66.74 25.5072 66.868C25.2952 66.992 25.0472 67.054 24.7632 67.054C24.4712 67.054 24.2072 66.982 23.9712 66.838C23.7352 66.694 23.5492 66.492 23.4132 66.232C23.2772 65.972 23.2092 65.676 23.2092 65.344ZM25.9932 65.35C25.9932 65.102 25.9432 64.886 25.8432 64.702C25.7432 64.518 25.6072 64.378 25.4352 64.282C25.2672 64.182 25.0812 64.132 24.8772 64.132C24.6732 64.132 24.4872 64.18 24.3192 64.276C24.1512 64.372 24.0172 64.512 23.9172 64.696C23.8172 64.88 23.7672 65.096 23.7672 65.344C23.7672 65.596 23.8172 65.816 23.9172 66.004C24.0172 66.188 24.1512 66.33 24.3192 66.43C24.4872 66.526 24.6732 66.574 24.8772 66.574C25.0812 66.574 25.2672 66.526 25.4352 66.43C25.6072 66.33 25.7432 66.188 25.8432 66.004C25.9432 65.816 25.9932 65.598 25.9932 65.35ZM29.0699 63.652C29.4699 63.652 29.7939 63.774 30.0419 64.018C30.2899 64.258 30.4139 64.606 30.4139 65.062V67H29.8739V65.14C29.8739 64.812 29.7919 64.562 29.6279 64.39C29.4639 64.214 29.2399 64.126 28.9559 64.126C28.6679 64.126 28.4379 64.216 28.2659 64.396C28.0979 64.576 28.0139 64.838 28.0139 65.182V67H27.4679V63.712H28.0139V64.18C28.1219 64.012 28.2679 63.882 28.4519 63.79C28.6399 63.698 28.8459 63.652 29.0699 63.652ZM32.9078 63.652C33.3078 63.652 33.6318 63.774 33.8798 64.018C34.1278 64.258 34.2518 64.606 34.2518 65.062V67H33.7118V65.14C33.7118 64.812 33.6298 64.562 33.4658 64.39C33.3018 64.214 33.0778 64.126 32.7938 64.126C32.5058 64.126 32.2758 64.216 32.1038 64.396C31.9358 64.576 31.8518 64.838 31.8518 65.182V67H31.3058V63.712H31.8518V64.18C31.9598 64.012 32.1058 63.882 32.2898 63.79C32.4778 63.698 32.6838 63.652 32.9078 63.652ZM35.4256 63.178C35.3216 63.178 35.2336 63.142 35.1616 63.07C35.0896 62.998 35.0536 62.91 35.0536 62.806C35.0536 62.702 35.0896 62.614 35.1616 62.542C35.2336 62.47 35.3216 62.434 35.4256 62.434C35.5256 62.434 35.6096 62.47 35.6776 62.542C35.7496 62.614 35.7856 62.702 35.7856 62.806C35.7856 62.91 35.7496 62.998 35.6776 63.07C35.6096 63.142 35.5256 63.178 35.4256 63.178ZM35.6896 63.712V67H35.1436V63.712H35.6896ZM38.2222 63.652C38.6222 63.652 38.9462 63.774 39.1942 64.018C39.4422 64.258 39.5662 64.606 39.5662 65.062V67H39.0262V65.14C39.0262 64.812 38.9442 64.562 38.7802 64.39C38.6162 64.214 38.3922 64.126 38.1082 64.126C37.8202 64.126 37.5902 64.216 37.4182 64.396C37.2502 64.576 37.1662 64.838 37.1662 65.182V67H36.6202V63.712H37.1662V64.18C37.2742 64.012 37.4202 63.882 37.6042 63.79C37.7922 63.698 37.9982 63.652 38.2222 63.652ZM41.8141 63.658C42.0981 63.658 42.3461 63.72 42.5581 63.844C42.7741 63.968 42.9341 64.124 43.0381 64.312V63.712H43.5901V67.072C43.5901 67.372 43.5261 67.638 43.3981 67.87C43.2701 68.106 43.0861 68.29 42.8461 68.422C42.6101 68.554 42.3341 68.62 42.0181 68.62C41.5861 68.62 41.2261 68.518 40.9381 68.314C40.6501 68.11 40.4801 67.832 40.4281 67.48H40.9681C41.0281 67.68 41.1521 67.84 41.3401 67.96C41.5281 68.084 41.7541 68.146 42.0181 68.146C42.3181 68.146 42.5621 68.052 42.7501 67.864C42.9421 67.676 43.0381 67.412 43.0381 67.072V66.382C42.9301 66.574 42.7701 66.734 42.5581 66.862C42.3461 66.99 42.0981 67.054 41.8141 67.054C41.5221 67.054 41.2561 66.982 41.0161 66.838C40.7801 66.694 40.5941 66.492 40.4581 66.232C40.3221 65.972 40.2541 65.676 40.2541 65.344C40.2541 65.008 40.3221 64.714 40.4581 64.462C40.5941 64.206 40.7801 64.008 41.0161 63.868C41.2561 63.728 41.5221 63.658 41.8141 63.658ZM43.0381 65.35C43.0381 65.102 42.9881 64.886 42.8881 64.702C42.7881 64.518 42.6521 64.378 42.4801 64.282C42.3121 64.182 42.1261 64.132 41.9221 64.132C41.7181 64.132 41.5321 64.18 41.3641 64.276C41.1961 64.372 41.0621 64.512 40.9621 64.696C40.8621 64.88 40.8121 65.096 40.8121 65.344C40.8121 65.596 40.8621 65.816 40.9621 66.004C41.0621 66.188 41.1961 66.33 41.3641 66.43C41.5321 66.526 41.7181 66.574 41.9221 66.574C42.1261 66.574 42.3121 66.526 42.4801 66.43C42.6521 66.33 42.7881 66.188 42.8881 66.004C42.9881 65.816 43.0381 65.598 43.0381 65.35Z" fill="#7280FF"/>
</svg>
