<svg width="60" height="69" viewBox="0 0 60 69" fill="none" xmlns="http://www.w3.org/2000/svg">
<circle cx="30" cy="30" r="30" fill="#7280FF"/>
<path d="M26.9 24.5V22.42H31.06V37H28.76V24.5H26.9Z" fill="white"/>
<path d="M12.258 64.906C12.258 64.498 12.35 64.132 12.534 63.808C12.718 63.48 12.968 63.224 13.284 63.04C13.604 62.856 13.958 62.764 14.346 62.764C14.802 62.764 15.2 62.874 15.54 63.094C15.88 63.314 16.128 63.626 16.284 64.03H15.63C15.514 63.778 15.346 63.584 15.126 63.448C14.91 63.312 14.65 63.244 14.346 63.244C14.054 63.244 13.792 63.312 13.56 63.448C13.328 63.584 13.146 63.778 13.014 64.03C12.882 64.278 12.816 64.57 12.816 64.906C12.816 65.238 12.882 65.53 13.014 65.782C13.146 66.03 13.328 66.222 13.56 66.358C13.792 66.494 14.054 66.562 14.346 66.562C14.65 66.562 14.91 66.496 15.126 66.364C15.346 66.228 15.514 66.034 15.63 65.782H16.284C16.128 66.182 15.88 66.492 15.54 66.712C15.2 66.928 14.802 67.036 14.346 67.036C13.958 67.036 13.604 66.946 13.284 66.766C12.968 66.582 12.718 66.328 12.534 66.004C12.35 65.68 12.258 65.314 12.258 64.906ZM18.5308 67.054C18.2228 67.054 17.9428 66.984 17.6908 66.844C17.4428 66.704 17.2468 66.506 17.1028 66.25C16.9628 65.99 16.8928 65.69 16.8928 65.35C16.8928 65.014 16.9648 64.718 17.1088 64.462C17.2568 64.202 17.4568 64.004 17.7088 63.868C17.9608 63.728 18.2428 63.658 18.5548 63.658C18.8668 63.658 19.1488 63.728 19.4008 63.868C19.6528 64.004 19.8508 64.2 19.9948 64.456C20.1428 64.712 20.2168 65.01 20.2168 65.35C20.2168 65.69 20.1408 65.99 19.9888 66.25C19.8408 66.506 19.6388 66.704 19.3828 66.844C19.1268 66.984 18.8428 67.054 18.5308 67.054ZM18.5308 66.574C18.7268 66.574 18.9108 66.528 19.0828 66.436C19.2548 66.344 19.3928 66.206 19.4968 66.022C19.6048 65.838 19.6588 65.614 19.6588 65.35C19.6588 65.086 19.6068 64.862 19.5028 64.678C19.3988 64.494 19.2628 64.358 19.0948 64.27C18.9268 64.178 18.7448 64.132 18.5488 64.132C18.3488 64.132 18.1648 64.178 17.9968 64.27C17.8328 64.358 17.7008 64.494 17.6008 64.678C17.5008 64.862 17.4508 65.086 17.4508 65.35C17.4508 65.618 17.4988 65.844 17.5948 66.028C17.6948 66.212 17.8268 66.35 17.9908 66.442C18.1548 66.53 18.3348 66.574 18.5308 66.574ZM22.5367 63.652C22.9367 63.652 23.2607 63.774 23.5087 64.018C23.7567 64.258 23.8807 64.606 23.8807 65.062V67H23.3407V65.14C23.3407 64.812 23.2587 64.562 23.0947 64.39C22.9307 64.214 22.7067 64.126 22.4227 64.126C22.1347 64.126 21.9047 64.216 21.7327 64.396C21.5647 64.576 21.4807 64.838 21.4807 65.182V67H20.9347V63.712H21.4807V64.18C21.5887 64.012 21.7347 63.882 21.9187 63.79C22.1067 63.698 22.3127 63.652 22.5367 63.652ZM24.5685 65.35C24.5685 65.01 24.6365 64.714 24.7725 64.462C24.9085 64.206 25.0965 64.008 25.3365 63.868C25.5805 63.728 25.8585 63.658 26.1705 63.658C26.5745 63.658 26.9065 63.756 27.1665 63.952C27.4305 64.148 27.6045 64.42 27.6885 64.768H27.1005C27.0445 64.568 26.9345 64.41 26.7705 64.294C26.6105 64.178 26.4105 64.12 26.1705 64.12C25.8585 64.12 25.6065 64.228 25.4145 64.444C25.2225 64.656 25.1265 64.958 25.1265 65.35C25.1265 65.746 25.2225 66.052 25.4145 66.268C25.6065 66.484 25.8585 66.592 26.1705 66.592C26.4105 66.592 26.6105 66.536 26.7705 66.424C26.9305 66.312 27.0405 66.152 27.1005 65.944H27.6885C27.6005 66.28 27.4245 66.55 27.1605 66.754C26.8965 66.954 26.5665 67.054 26.1705 67.054C25.8585 67.054 25.5805 66.984 25.3365 66.844C25.0965 66.704 24.9085 66.506 24.7725 66.25C24.6365 65.994 24.5685 65.694 24.5685 65.35ZM31.4171 65.23C31.4171 65.334 31.4111 65.444 31.3991 65.56H28.7711C28.7911 65.884 28.9011 66.138 29.1011 66.322C29.3051 66.502 29.5511 66.592 29.8391 66.592C30.0751 66.592 30.2711 66.538 30.4271 66.43C30.5871 66.318 30.6991 66.17 30.7631 65.986H31.3511C31.2631 66.302 31.0871 66.56 30.8231 66.76C30.5591 66.956 30.2311 67.054 29.8391 67.054C29.5271 67.054 29.2471 66.984 28.9991 66.844C28.7551 66.704 28.5631 66.506 28.4231 66.25C28.2831 65.99 28.2131 65.69 28.2131 65.35C28.2131 65.01 28.2811 64.712 28.4171 64.456C28.5531 64.2 28.7431 64.004 28.9871 63.868C29.2351 63.728 29.5191 63.658 29.8391 63.658C30.1511 63.658 30.4271 63.726 30.6671 63.862C30.9071 63.998 31.0911 64.186 31.2191 64.426C31.3511 64.662 31.4171 64.93 31.4171 65.23ZM30.8531 65.116C30.8531 64.908 30.8071 64.73 30.7151 64.582C30.6231 64.43 30.4971 64.316 30.3371 64.24C30.1811 64.16 30.0071 64.12 29.8151 64.12C29.5391 64.12 29.3031 64.208 29.1071 64.384C28.9151 64.56 28.8051 64.804 28.7771 65.116H30.8531ZM32.6838 64.318C32.7918 64.13 32.9518 63.974 33.1638 63.85C33.3798 63.722 33.6298 63.658 33.9138 63.658C34.2058 63.658 34.4698 63.728 34.7058 63.868C34.9458 64.008 35.1338 64.206 35.2698 64.462C35.4058 64.714 35.4738 65.008 35.4738 65.344C35.4738 65.676 35.4058 65.972 35.2698 66.232C35.1338 66.492 34.9458 66.694 34.7058 66.838C34.4698 66.982 34.2058 67.054 33.9138 67.054C33.6338 67.054 33.3858 66.992 33.1698 66.868C32.9578 66.74 32.7958 66.582 32.6838 66.394V68.56H32.1378V63.712H32.6838V64.318ZM34.9158 65.344C34.9158 65.096 34.8658 64.88 34.7658 64.696C34.6658 64.512 34.5298 64.372 34.3578 64.276C34.1898 64.18 34.0038 64.132 33.7998 64.132C33.5998 64.132 33.4138 64.182 33.2418 64.282C33.0738 64.378 32.9378 64.52 32.8338 64.708C32.7338 64.892 32.6838 65.106 32.6838 65.35C32.6838 65.598 32.7338 65.816 32.8338 66.004C32.9378 66.188 33.0738 66.33 33.2418 66.43C33.4138 66.526 33.5998 66.574 33.7998 66.574C34.0038 66.574 34.1898 66.526 34.3578 66.43C34.5298 66.33 34.6658 66.188 34.7658 66.004C34.8658 65.816 34.9158 65.596 34.9158 65.344ZM36.8585 64.162V66.1C36.8585 66.26 36.8925 66.374 36.9605 66.442C37.0285 66.506 37.1465 66.538 37.3145 66.538H37.7165V67H37.2245C36.9205 67 36.6925 66.93 36.5405 66.79C36.3885 66.65 36.3125 66.42 36.3125 66.1V64.162H35.8865V63.712H36.3125V62.884H36.8585V63.712H37.7165V64.162H36.8585ZM38.66 63.178C38.556 63.178 38.468 63.142 38.396 63.07C38.324 62.998 38.288 62.91 38.288 62.806C38.288 62.702 38.324 62.614 38.396 62.542C38.468 62.47 38.556 62.434 38.66 62.434C38.76 62.434 38.844 62.47 38.912 62.542C38.984 62.614 39.02 62.702 39.02 62.806C39.02 62.91 38.984 62.998 38.912 63.07C38.844 63.142 38.76 63.178 38.66 63.178ZM38.924 63.712V67H38.378V63.712H38.924ZM41.2886 67.054C40.9806 67.054 40.7006 66.984 40.4486 66.844C40.2006 66.704 40.0046 66.506 39.8606 66.25C39.7206 65.99 39.6506 65.69 39.6506 65.35C39.6506 65.014 39.7226 64.718 39.8666 64.462C40.0146 64.202 40.2146 64.004 40.4666 63.868C40.7186 63.728 41.0006 63.658 41.3126 63.658C41.6246 63.658 41.9066 63.728 42.1586 63.868C42.4106 64.004 42.6086 64.2 42.7526 64.456C42.9006 64.712 42.9746 65.01 42.9746 65.35C42.9746 65.69 42.8986 65.99 42.7466 66.25C42.5986 66.506 42.3966 66.704 42.1406 66.844C41.8846 66.984 41.6006 67.054 41.2886 67.054ZM41.2886 66.574C41.4846 66.574 41.6686 66.528 41.8406 66.436C42.0126 66.344 42.1506 66.206 42.2546 66.022C42.3626 65.838 42.4166 65.614 42.4166 65.35C42.4166 65.086 42.3646 64.862 42.2606 64.678C42.1566 64.494 42.0206 64.358 41.8526 64.27C41.6846 64.178 41.5026 64.132 41.3066 64.132C41.1066 64.132 40.9226 64.178 40.7546 64.27C40.5906 64.358 40.4586 64.494 40.3586 64.678C40.2586 64.862 40.2086 65.086 40.2086 65.35C40.2086 65.618 40.2566 65.844 40.3526 66.028C40.4526 66.212 40.5846 66.35 40.7486 66.442C40.9126 66.53 41.0926 66.574 41.2886 66.574ZM45.2945 63.652C45.6945 63.652 46.0185 63.774 46.2665 64.018C46.5145 64.258 46.6385 64.606 46.6385 65.062V67H46.0985V65.14C46.0985 64.812 46.0165 64.562 45.8525 64.39C45.6885 64.214 45.4645 64.126 45.1805 64.126C44.8925 64.126 44.6625 64.216 44.4905 64.396C44.3225 64.576 44.2385 64.838 44.2385 65.182V67H43.6925V63.712H44.2385V64.18C44.3465 64.012 44.4925 63.882 44.6765 63.79C44.8645 63.698 45.0705 63.652 45.2945 63.652Z" fill="#7280FF"/>
</svg>
