<svg width="27" height="27" viewBox="0 0 27 27" fill="none" xmlns="http://www.w3.org/2000/svg">
<path d="M10.4203 4.5H10.6793L10.8287 4.28844L12.8686 1.40008C13.0633 1.12446 13.4694 1.11682 13.6743 1.38493L15.9046 4.30359L16.0547 4.5H16.3019H24C25.3807 4.5 26.5 5.61929 26.5 7V24C26.5 25.3807 25.3807 26.5 24 26.5H3C1.61929 26.5 0.5 25.3807 0.5 24V7C0.5 5.61929 1.61929 4.5 3 4.5H10.4203Z" stroke="#A7A7A7"/>
<circle cx="13" cy="14" r="5.5" stroke="#A7A7A7"/>
<path d="M4.52242 26.5C4.77504 23.6968 7.13098 21.5 10 21.5H16C18.869 21.5 21.225 23.6968 21.4776 26.5H4.52242Z" stroke="#A7A7A7"/>
</svg>
