<svg width="24" height="24" viewBox="0 0 24 24" fill="none" xmlns="http://www.w3.org/2000/svg">
<g clip-path="url(#clip0)">
<path d="M12 11.25C12.978 11.25 13.842 11.484 14.544 11.79C15.192 12.078 15.6 12.726 15.6 13.428V14.4H8.40005V13.434C8.40005 12.726 8.80805 12.078 9.45605 11.796C10.158 11.484 11.022 11.25 12 11.25ZM7.20005 11.4C7.86005 11.4 8.40005 10.86 8.40005 10.2C8.40005 9.54 7.86005 9 7.20005 9C6.54005 9 6.00005 9.54 6.00005 10.2C6.00005 10.86 6.54005 11.4 7.20005 11.4ZM7.87805 12.06C7.65605 12.024 7.43405 12 7.20005 12C6.60605 12 6.04205 12.126 5.53205 12.348C5.08805 12.54 4.80005 12.972 4.80005 13.458V14.4H7.50005V13.434C7.50005 12.936 7.63805 12.468 7.87805 12.06ZM16.8 11.4C17.46 11.4 18 10.86 18 10.2C18 9.54 17.46 9 16.8 9C16.14 9 15.6 9.54 15.6 10.2C15.6 10.86 16.14 11.4 16.8 11.4ZM19.2 13.458C19.2 12.972 18.912 12.54 18.468 12.348C17.958 12.126 17.394 12 16.8 12C16.566 12 16.344 12.024 16.122 12.06C16.362 12.468 16.5 12.936 16.5 13.434V14.4H19.2V13.458ZM12 7.2C12.996 7.2 13.8 8.004 13.8 9C13.8 9.996 12.996 10.8 12 10.8C11.004 10.8 10.2 9.996 10.2 9C10.2 8.004 11.004 7.2 12 7.2Z" fill="#424283"/>
</g>
<circle cx="12" cy="12" r="8" stroke="#424283" stroke-width="2"/>
<line x1="12.4" x2="12.4" y2="3.6" stroke="#424283" stroke-width="2"/>
<line x1="12.3999" y1="20.4" x2="12.3999" y2="24" stroke="#424283" stroke-width="2"/>
<line x1="24" y1="12.4" x2="20.4" y2="12.4" stroke="#424283" stroke-width="2"/>
<line x1="3.6001" y1="12.4" x2="9.76642e-05" y2="12.4" stroke="#424283" stroke-width="2"/>
<defs>
<clipPath id="clip0">
<rect width="14.4" height="14.4" fill="white" transform="translate(4.80005 3.6)"/>
</clipPath>
</defs>
</svg>
